<svg xmlns="http://www.w3.org/2000/svg" viewBox="0 0 1024 648"><path fill="#222" d="M105.976 79.202h20.372v17.56h-20.372zm0 33.613h20.372v19.566h-20.372zm0 36.289h61.96v-16.723h-24.582v-19.566h19.867V96.761h-19.867V79.202h19.194V63.15h-19.194V45.088h23.571V28.365h-21.383c-2.02-8.361-5.05-17.726-8.755-27.76L119.95 5.287c3.368 7.359 6.398 15.051 9.092 23.078h-22.73c2.357-7.692 4.546-15.385 6.23-23.412l-16.5-3.345C91.664 25.02 84.087 46.593 73.649 66.326L79.54 84.72c3.031-4.682 6.062-9.7 8.924-14.716v86.29h17.51zm20.372-104.016v18.06h-20.372v-18.06zM35.597 147.432H56.98v6.689h16.669V94.588H18.76v61.707h16.837zm21.383-15.887H35.597v-21.07H56.98zM13.204 21.341v16.054h65.159V21.341H55.97c-1.852-6.02-4.21-12.542-7.24-19.733L31.724 6.124c2.694 5.016 5.052 10.033 7.24 15.217zm7.071 25.085v15.217h51.858V46.426zm0 23.244v15.385h51.858V69.67zM264.096 66.057l-4.57 3.53c3.555 3.363 6.517 7.146 8.972 11.35l4.994-3.616c-2.201-3.867-5.333-7.65-9.396-11.264zm-8.294 6.389l-4.655 3.53c3.64 3.447 6.686 7.23 9.056 11.35l4.91-3.447c-2.37-4.204-5.502-8.07-9.311-11.433zm15.32 22.277c-12.02 0-24.97.504-39.02 1.597l.508 8.575c13.881-1.093 26.747-1.597 38.512-1.597zm-25.054-13.45a377.39 377.39 0 01-18.282 1.68l2.031-12.02-9.225-1.178c-.762 4.708-1.524 9.248-2.286 13.703-5.755.168-11.765.336-17.859.336l.423 8.575c5.502-.168 10.75-.252 15.744-.42a477.04 477.04 0 01-3.217 13.787c-3.216 12.61-6.94 23.706-11.088 33.122l8.972 2.858c4.063-9.752 7.787-21.1 11.088-34.047 1.27-5.212 2.54-10.592 3.724-16.224 8.041-.505 15.235-1.093 21.499-1.934zm-12.103 32.785c-3.81 4.792-5.671 9.5-5.671 14.04 0 8.574 8.464 12.946 25.561 12.946 7.025 0 13.204-.505 18.452-1.345l-.254-8.575c-5.502 1.009-11.596 1.597-18.198 1.597-5.078 0-8.972-.42-11.68-1.26-3.132-.926-4.655-2.355-4.655-4.372 0-2.354 1.438-5.297 4.316-8.911zM330.623 96.825c-7.956 0-19.467 2.017-34.533 6.137l2.455 8.07c14.896-3.867 25.646-5.8 32.078-5.8 4.317 0 7.703 1.008 10.242 3.026 2.454 2.017 3.724 4.54 3.724 7.65 0 4.876-2.116 8.406-6.348 10.76-4.825 2.606-13.12 4.12-24.8 4.456l2.201 8.154c12.865-.504 22.26-2.354 28.354-5.716 6.602-3.7 9.988-9.668 9.988-17.738 0-5.8-2.2-10.424-6.602-13.955-4.317-3.363-9.903-5.044-16.759-5.044zM449.288 77.658c-21.16.168-44.52 1.597-70.082 4.455l1.185 8.49c11.85-1.512 24.63-2.773 38.173-3.866-5.417 3.53-9.564 7.314-12.611 11.433-4.063 5.212-6.01 11.012-6.01 17.317 0 7.735 3.047 13.787 9.226 18.159 6.771 4.707 16.843 7.23 30.301 7.398l1.608-8.239c-10.918-.336-19.128-2.27-24.545-5.632-4.91-3.11-7.28-7.23-7.28-12.274 0-4.792 1.609-9.5 4.91-14.207 2.708-4.035 6.094-7.482 10.241-10.34 3.724-2.69 6.771-4.036 9.057-4.036l15.997-.588zM476.204 124.903l-5.163 4.708a89.924 89.924 0 019.818 8.91c2.708 2.859 5.163 5.885 7.448 9.08l5.925-4.876c-2.37-3.279-4.994-6.305-7.702-9.08-3.217-3.278-6.602-6.22-10.326-8.742zM133.897 210.85l-8.994 6.948c6.995 6.617 12.824 14.06 17.654 22.332l9.827-7.113c-4.33-7.61-10.493-15.054-18.487-22.167zm-18.32 6.948l-9.161 6.948c7.162 6.782 13.157 14.226 17.82 22.331l9.66-6.782c-4.663-8.271-10.825-15.88-18.32-22.497zm-49.633-3.97l-18.32.496c.167 14.226 1 25.31 2.332 33.415 1.332 8.602 3.497 16.707 6.828 23.986-3.497 1.489-6.662 2.978-9.493 4.632-21.485 11.414-32.144 24.978-32.144 40.693 0 12.407 5.33 21.505 16.155 27.13 10.326 5.458 26.815 8.27 49.465 8.27 21.319 0 38.973-.992 53.13-2.812l-1.666-17.7c-13.157 2.316-30.312 3.64-51.464 3.64-31.31 0-46.8-6.452-46.8-19.024 0-11.083 11.159-21.34 33.81-30.934 15.489-6.782 36.307-13.068 62.622-19.023l-6.495-16.046c-19.653 4.632-36.308 9.43-49.965 14.392-2.165-4.963-3.83-10.09-4.83-15.384-1.666-8.271-2.831-20.182-3.165-35.731zM198.351 230.7l-2.332 16.543c14.823 2.646 32.81 3.97 54.129 3.97 6.662 0 13.823-.496 21.318-1.489-6.995 3.143-14.323 7.113-21.984 11.745l10.326 13.399c12.324-8.933 27.813-18.362 46.467-27.956l-6.495-14.06c-13.657 1.323-30.312 1.984-49.632 1.984-19.486 0-36.808-1.489-51.797-4.135zm9.826 54.92c-13.657 13.896-20.485 25.64-20.485 35.4 0 20.843 21.485 31.265 64.454 31.265 20.32 0 39.806-1.654 58.626-4.963l-2.831-16.707c-18.82 3.143-37.474 4.797-55.795 4.797-30.645 0-45.967-5.128-45.967-15.384 0-4.632 5.33-12.407 15.989-23.49zM416.887 285.899c-15.066 0-30.047.504-44.944 1.513l1.44 8.659c13.034-.925 27.338-1.345 42.996-1.345zm-39.95 25.472c-3.893 6.641-5.84 12.105-5.84 16.309 0 5.38 2.454 9.247 7.533 11.685 4.74 2.27 12.019 3.447 21.921 3.447 4.402 0 10.919-.337 19.552-1.01l-.508-8.994c-6.855.84-13.203 1.26-19.044 1.26-6.263 0-11.087-.504-14.304-1.513-3.808-1.176-5.67-2.942-5.67-5.38 0-2.858 1.608-6.725 4.909-11.6zm-19.383-34.467c-3.47 12.862-5.163 25.472-5.163 37.83 0 11.6 1.947 22.109 5.84 31.608l8.634-3.11c-3.47-8.323-5.163-17.822-5.163-28.499 0-11.853 1.608-23.79 4.824-35.728zM495.263 284.217l-7.448 5.549c8.633 10.004 13.458 24.043 14.473 42.117l9.395-.42c-1.015-20.008-6.517-35.813-16.42-47.246zm-55.862 0c-1.27 8.239-1.862 16.057-1.862 23.623 0 11.18 1.777 20.008 5.417 26.397 3.64 6.389 8.718 9.583 15.235 9.583 4.063 0 7.448-1.85 10.157-5.464 2.54-3.53 4.74-9.08 6.517-16.645l-9.226-2.27c-.677 3.53-1.438 6.473-2.285 8.827-1.523 4.203-3.385 6.39-5.417 6.39-2.708 0-5.078-2.103-7.11-6.138-2.539-4.96-3.808-11.853-3.808-20.68 0-7.65.592-15.132 1.777-22.446zM595.392 299.013c-12.019 0-24.969.504-39.019 1.597l.508 8.575c13.881-1.093 26.746-1.597 38.511-1.597zm-25.053-13.45a377.376 377.376 0 01-18.282 1.68l2.03-12.02-9.225-1.178c-.762 4.708-1.523 9.248-2.285 13.703-5.756.168-11.765.336-17.86.336l.424 8.575c5.502-.168 10.75-.252 15.743-.42-1.016 4.708-2.116 9.331-3.216 13.787-3.217 12.61-6.94 23.706-11.088 33.122l8.972 2.858c4.062-9.752 7.787-21.1 11.088-34.047 1.27-5.212 2.539-10.592 3.724-16.225 8.04-.504 15.235-1.092 21.498-1.933zm-12.104 32.785c-3.809 4.792-5.67 9.5-5.67 14.04 0 8.574 8.463 12.946 25.56 12.946 7.026 0 13.204-.505 18.452-1.346l-.254-8.574c-5.501 1.009-11.595 1.597-18.197 1.597-5.079 0-8.972-.42-11.68-1.261-3.132-.925-4.656-2.354-4.656-4.371 0-2.354 1.439-5.297 4.317-8.911zM654.894 301.115c-7.956 0-19.467 2.017-34.533 6.137l2.454 8.07c14.897-3.867 25.646-5.8 32.079-5.8 4.316 0 7.702 1.008 10.241 3.026 2.455 2.017 3.724 4.54 3.724 7.65 0 4.876-2.116 8.406-6.348 10.76-4.824 2.606-13.119 4.12-24.799 4.456l2.2 8.154c12.866-.504 22.26-2.354 28.355-5.716 6.602-3.7 9.987-9.668 9.987-17.738 0-5.8-2.2-10.425-6.601-13.955-4.317-3.363-9.903-5.044-16.76-5.044zM773.559 281.948c-21.16.168-44.52 1.597-70.082 4.455l1.185 8.49c11.85-1.512 24.63-2.773 38.173-3.866-5.417 3.53-9.565 7.314-12.612 11.433-4.062 5.212-6.01 11.012-6.01 17.317 0 7.735 3.048 13.787 9.227 18.159 6.77 4.707 16.843 7.23 30.3 7.398l1.609-8.239c-10.919-.336-19.129-2.27-24.546-5.632-4.909-3.11-7.279-7.23-7.279-12.274 0-4.792 1.608-9.5 4.91-14.207 2.708-4.035 6.093-7.482 10.24-10.34 3.725-2.69 6.772-4.036 9.057-4.036l15.997-.588zM800.474 329.193l-5.163 4.708a89.923 89.923 0 019.818 8.91c2.709 2.859 5.163 5.885 7.449 9.08l5.924-4.876c-2.37-3.279-4.993-6.305-7.702-9.08-3.216-3.278-6.602-6.22-10.326-8.742zM0 461.808v26.75h31.466v148.848h202.396V609.33H59.732V488.558h45.332v83.429h100.532v-83.429h37.332v-26.75h-37.332V402.48H178.13v59.327h-45.6V402.48h-27.466v59.327H59.732v-56.679H31.466v56.679zm132.53 26.75h45.6v56.414h-45.6zM307.46 410.161V521.4h44.266c-17.067 15.361-42.133 28.074-75.732 38.139l14.933 24.102c22.933-9.27 42.666-19.865 59.199-31.783-.534 15.891-3.467 28.87-8.534 38.934-7.2 13.772-22.4 25.426-45.599 34.96l18.4 22.248c28.8-12.713 46.932-28.604 54.399-47.674 6.4-15.096 9.6-33.371 9.6-54.824h-20c9.067-7.416 17.066-15.627 24-24.102h38.399c5.866 8.475 13.6 16.42 22.666 24.366h-14.4v101.97h28V556.36c15.466 11.123 34.666 20.923 57.599 29.663l12-24.366c-33.333-10.065-58.666-23.572-75.732-40.258h45.865V410.16zm162.396 87.402h-54.665v-20.659h54.665zm-81.865 0h-53.598v-20.659h53.598zm-53.598-43.436v-19.6h53.598v19.6zm80.798-19.6h54.665v19.6h-54.665zM560.254 508.422v27.545H802.65v-27.545zM619.815 588.713c-13.608 0-27.14.455-40.594 1.366l1.3 7.821c11.773-.835 24.692-1.215 38.835-1.215zm-36.084 23.007c-3.516 5.998-5.275 10.934-5.275 14.73 0 4.86 2.217 8.353 6.804 10.555 4.281 2.05 10.856 3.113 19.8 3.113 3.976 0 9.862-.304 17.66-.912l-.458-8.124c-6.193.76-11.926 1.139-17.201 1.139-5.658 0-10.015-.456-12.92-1.367-3.44-1.063-5.122-2.657-5.122-4.86 0-2.581 1.452-6.074 4.434-10.478zm-17.507-31.132c-3.134 11.617-4.663 23.007-4.663 34.169 0 10.478 1.758 19.97 5.275 28.55l7.798-2.81c-3.135-7.517-4.664-16.097-4.664-25.74 0-10.706 1.453-21.489 4.358-32.27zM681.28 584.84l-3.21 7.138c3.669 1.139 7.262 2.657 10.702 4.631 3.44 1.975 6.727 4.328 9.938 7.062l5.275-5.77c-3.44-3.038-7.033-5.62-10.703-7.746-3.822-2.202-7.874-3.948-12.002-5.315zm-7.186 3.948a508.85 508.85 0 01-12.69.836c.84-3.19 1.605-6.53 2.293-9.871l-8.027-1.823c-.918 4.1-1.835 8.125-2.829 11.997-4.74.076-9.633.152-14.678.152v7.441c4.204 0 8.333-.075 12.461-.151a366.75 366.75 0 01-2.523 7.061c-3.517 9.188-7.645 17.16-12.537 23.918l6.956 4.404c5.046-7.593 9.404-15.945 13.073-25.057 1.3-3.493 2.523-6.985 3.67-10.63a494.47 494.47 0 0015.366-.911zm13.684 12.605l-8.18.38c.306 7.289.535 13.136.688 17.616-2.905-.76-5.81-1.063-8.562-1.063-4.434 0-8.104.987-11.009 2.96-3.516 2.279-5.198 5.468-5.198 9.644 0 4.252 1.834 7.441 5.58 9.72 3.058 1.822 6.88 2.733 11.468 2.733 5.045 0 8.868-1.215 11.62-3.57 2.37-2.125 3.822-5.238 4.358-9.263 3.363 1.975 7.262 4.708 11.696 8.353l5.122-5.999c-5.81-4.707-11.39-8.276-16.742-10.706-.153-4.632-.459-11.541-.84-20.805zm-7.339 25.589c0 2.96-.688 5.239-1.911 6.757-1.376 1.52-3.364 2.354-5.963 2.354-2.217 0-4.128-.38-5.657-1.063-2.141-.91-3.135-2.278-3.135-4.1 0-1.519.688-2.733 2.217-3.797 1.453-1.063 3.364-1.518 5.734-1.518 2.828 0 5.734.455 8.715 1.367zM760.863 589.776c-5.81 0-12.92 3.492-21.33 10.478v-.683l3.365-6.682-3.135-2.658.306-11.465-8.027-.076-.306 11.845-13.76.835.382 7.441 13.225-.835-.306 9.795c-5.122 5.012-10.626 11.162-16.513 18.375l6.499 5.012a265.842 265.842 0 019.709-11.314c-.153 7.897-.23 16.022-.23 24.222h8.027c0-9.112.153-20.122.46-33.03l1.146-1.139c8.639-8.428 15.443-12.604 20.412-12.604 3.44 0 5.198 1.518 5.198 4.632 0 2.126-.458 6.833-1.376 13.97-.917 7.138-1.376 11.542-1.376 13.213 0 7.745 3.593 11.617 10.856 11.617 3.134 0 5.886-.911 8.18-2.657 1.529-1.367 3.517-3.721 5.963-7.138l-6.651-4.86c-2.6 4.632-5.046 6.986-7.492 6.986-1.682 0-2.523-1.367-2.523-3.948 0-1.67.382-6.075 1.3-13.212.84-7.138 1.3-11.845 1.3-13.971 0-3.797-1.147-6.834-3.44-8.96-2.294-2.126-5.582-3.19-9.863-3.19zM847.021 582.714l-39.677 1.215.459 7.517 29.738-1.595-36.16 29.613 5.046 5.316c4.663-4.1 9.403-7.214 14.22-9.416 5.656-2.581 11.314-3.872 17.124-3.872 4.28 0 7.645.76 9.938 2.278 2.6 1.746 3.899 4.48 3.899 8.124 0 4.404-2.6 7.897-7.645 10.479-1.07-3.645-2.676-6.53-4.816-8.656-3.135-3.265-7.416-4.86-12.844-4.86-4.28 0-7.645 1.215-10.167 3.645-2.37 2.202-3.517 4.86-3.517 8.048 0 3.57 1.605 6.379 4.893 8.505 3.21 2.05 7.568 3.113 13.225 3.113 8.563 0 15.52-1.823 20.947-5.467 5.352-3.72 8.104-8.656 8.104-14.807 0-5.315-1.835-9.567-5.504-12.756-3.67-3.19-8.868-4.784-15.596-4.784-3.899 0-7.798.76-11.773 2.43a2954.18 2954.18 0 0124.387-18.755zm-10.32 52.013c-1.912.303-3.9.531-5.964.531-3.822 0-6.574-.607-8.333-1.822-1.223-.911-1.834-1.899-1.834-2.962 0-1.29.458-2.353 1.529-3.189 1.07-.91 2.446-1.366 4.204-1.366 5.275 0 8.715 2.885 10.397 8.808zM901.452 580.74c-7.644 17.084-15.9 37.054-24.693 59.985l8.333 2.126 7.263-18.83c1.147-3.038 3.134-5.771 5.887-8.277 2.752-2.582 5.198-3.797 7.339-3.797 2.37 0 3.593 1.747 3.593 5.24 0 .835-.077 3.113-.23 6.757-.152 3.645-.229 5.847-.229 6.455 0 3.796 1.3 6.91 3.899 9.339 2.6 2.354 6.04 3.569 10.32 3.569 6.04 0 10.703-2.582 13.99-7.745 2.906-4.48 5.429-12.225 7.57-23.16l-8.257-1.67c-1.682 9.568-3.746 16.326-6.04 20.198-1.911 3.037-4.357 4.632-7.262 4.632-1.835 0-3.288-.532-4.358-1.443-1.07-.911-1.605-2.202-1.605-3.72 0-.608.076-2.81.229-6.455.153-3.644.23-5.922.23-6.757 0-3.57-.842-6.53-2.447-8.808-1.988-2.734-4.74-4.025-8.257-4.025-1.605 0-3.21.38-4.74 1.14-1.528.759-2.98 1.822-4.357 3.188 3.593-7.972 7.568-16.325 11.926-25.057zM1015.514 574.665l-4.128 3.19c3.21 3.037 5.887 6.454 8.104 10.25l4.51-3.265c-1.988-3.493-4.816-6.91-8.486-10.175zm-7.492 5.771l-4.205 3.19c3.288 3.112 6.04 6.53 8.18 10.25l4.435-3.113c-2.141-3.797-4.97-7.29-8.41-10.327zm13.837 20.122c-10.855 0-22.552.455-35.243 1.442l.46 7.745c12.537-.987 24.157-1.442 34.783-1.442zm-22.628-12.15a340.883 340.883 0 01-16.513 1.52l1.834-10.859-8.333-1.063a1400.24 1400.24 0 01-2.064 12.377c-5.198.152-10.626.304-16.13.304l.382 7.745c4.969-.152 9.709-.228 14.22-.38a431.837 431.837 0 01-2.906 12.453c-2.905 11.39-6.269 21.412-10.015 29.916l8.104 2.582c3.67-8.808 7.033-19.059 10.015-30.752 1.147-4.708 2.293-9.567 3.364-14.655 7.262-.455 13.76-.987 19.418-1.746zm-10.933 29.614c-3.44 4.328-5.122 8.58-5.122 12.68 0 7.745 7.645 11.694 23.088 11.694 6.345 0 11.926-.456 16.666-1.215l-.23-7.745c-4.969.91-10.473 1.442-16.436 1.442-4.587 0-8.104-.38-10.55-1.139-2.829-.835-4.205-2.126-4.205-3.948 0-2.126 1.3-4.784 3.9-8.049z"/></svg>