<?xml version="1.0" encoding="UTF-8" standalone="no"?>
<svg
   width="320"
   height="600"
   viewBox="0 0 320 600"
   version="1.1"
   id="svg158"
   sodipodi:docname="itnav-catch-mp-base.svg"
   fill="#222222"
   inkscape:version="1.2.2 (b0a84865, 2022-12-01)"
   xmlns:inkscape="http://www.inkscape.org/namespaces/inkscape"
   xmlns:sodipodi="http://sodipodi.sourceforge.net/DTD/sodipodi-0.dtd"
   xmlns="http://www.w3.org/2000/svg"
   xmlns:svg="http://www.w3.org/2000/svg">
  <defs
     id="defs162" />
  <sodipodi:namedview
     id="namedview160"
     pagecolor="#ffffff"
     bordercolor="#000000"
     borderopacity="0.25"
     inkscape:showpageshadow="2"
     inkscape:pageopacity="0.0"
     inkscape:pagecheckerboard="0"
     inkscape:deskcolor="#d1d1d1"
     showgrid="false"
     inkscape:zoom="0.37341772"
     inkscape:cx="-48.20339"
     inkscape:cy="-133.89831"
     inkscape:window-width="1920"
     inkscape:window-height="1080"
     inkscape:window-x="1728"
     inkscape:window-y="0"
     inkscape:window-maximized="0"
     inkscape:current-layer="svg158" />
  <path
     d="m 287.08569,42.158838 h 10.82237 v 9.418464 h -10.82237 z m 0,18.029631 h 10.82237 v 10.49486 h -10.82237 z m 0,19.464825 H 320 v -8.969965 h -13.0584 v -10.49486 h 10.55405 V 51.577302 H 306.9416 v -9.418464 h 10.19628 V 33.547671 H 306.9416 v -9.687563 h 12.52175 V 14.890143 H 308.10434 C 307.03105,10.40516 305.42111,5.3819793 303.4534,0 l -8.9441,2.5115904 c 1.78882,3.9467848 3.39876,8.0729686 4.82982,12.3785526 h -12.07454 c 1.25217,-4.126184 2.4149,-8.2523685 3.30931,-12.557952 L 281.80867,0.53819786 C 279.4832,13.09615 275.45835,24.667405 269.913,35.251965 l 3.13044,9.866962 c 1.60995,-2.511591 3.21988,-5.20258 4.74038,-7.89357 v 46.285022 h 9.30187 z m 10.82237,-55.793186 v 9.687563 h -10.82237 v -9.687563 z m -48.20873,54.89619 h 11.35902 v 3.587986 H 269.913 V 50.411206 h -29.15777 v 33.099173 h 8.9441 z M 261.05835,70.23483 H 249.69933 V 58.932674 h 11.35902 z M 237.80367,11.122757 v 8.611167 h 34.61368 V 11.122757 H 260.5217 C 259.53784,7.8935697 258.28567,4.3952831 256.67573,0.53819786 l -9.03354,2.42189074 c 1.43105,2.6909897 2.68323,5.3819794 3.84596,8.1626684 z m 3.75652,13.454949 v 8.162668 h 27.54785 v -8.162668 z m 0,12.468252 v 8.252368 h 27.54785 v -8.252368 z"
     id="path511" />
  <path
     d="M 1.5225079,24.969764 V 35.250957 H 13.49957 V 92.45918 H 90.538467 V 81.669017 H 24.258625 V 35.250957 H 41.513714 V 67.316064 H 79.779412 V 35.250957 H 93.989486 V 24.969764 H 79.779412 V 2.1679096 H 69.324858 V 24.969764 H 51.968269 V 2.1679096 H 41.513714 V 24.969764 H 24.258625 V 3.1858496 H 13.49957 V 24.969764 Z M 51.968269,35.250957 h 17.356589 v 21.68212 H 51.968269 Z"
     id="path514" />
  <path
     d="m 11.977062,119.00826 v 42.75348 H 28.826149 C 22.330115,167.66579 12.789066,172.5519 0,176.42007 l 5.6840293,9.26326 c 8.7290457,-3.56279 16.2400837,-7.63455 22.5331167,-12.21528 -0.203001,6.10764 -1.319507,11.09554 -3.248017,14.96371 -2.740514,5.29329 -8.526044,9.77223 -17.3565897,13.43681 l 7.0035367,8.5507 c 10.962056,-4.88612 17.864092,-10.99375 20.706106,-18.32292 2.436013,-5.80226 3.65402,-12.82604 3.65402,-21.07136 h -7.61254 c 3.451018,-2.85023 6.496034,-6.00584 9.135048,-9.26325 h 14.616074 c 2.233012,3.25741 5.176528,6.31123 8.627546,9.36505 h -5.481029 v 39.19068 h 10.657555 v -35.11892 c 5.887031,4.27534 13.195068,8.04172 21.924113,11.40092 l 4.567524,-9.36504 C 82.722927,173.36625 73.080378,168.17476 66.584344,161.76174 h 17.45809 v -42.75348 z m 61.813819,33.59202 H 52.983273 v -7.93993 h 20.807608 z m -31.160661,0 H 22.228615 v -7.93993 H 42.63022 Z M 22.228615,135.90606 v -7.53275 H 42.63022 v 7.53275 z m 30.754658,-7.53275 h 20.807608 v 7.53275 H 52.983273 Z"
     id="path517" />
  <path
     d="M 1.6240084,245.46563 V 256.0522 H 93.887985 v -10.58657 z"
     id="path520" />
  <path
     d="m 195.11114,7.8572867 -4.93835,3.8520463 c 3.84094,3.668615 7.04173,7.795807 9.6938,12.381576 l 5.39561,-3.943762 C 202.88447,15.92824 199.50079,11.801048 195.11114,7.8572867 Z m -10.05961,3.8520463 -5.02979,3.852045 c 3.93239,3.760331 7.22462,7.887523 9.78524,12.381577 l 5.30416,-3.760331 c -2.56063,-4.585769 -5.94432,-8.804676 -10.05961,-12.473291 z m -27.25238,-2.2011697 -10.05961,0.275147 c 0.0914,7.8875217 0.54871,14.0324527 1.28031,18.5265057 0.73162,4.7692 1.92048,9.263253 3.74949,13.29873 -1.92047,0.825438 -3.65803,1.650877 -5.2127,2.56803 -11.79718,6.328362 -17.65004,13.849023 -17.65004,22.561984 0,6.878653 2.92643,11.922999 8.87075,15.041322 5.66995,3.026607 14.7236,4.585769 27.16094,4.585769 11.70572,0 21.39952,-0.550293 29.17285,-1.559162 l -0.91451,-9.813545 c -7.22463,1.284015 -16.64408,2.017738 -28.25834,2.017738 -17.19279,0 -25.69773,-3.5769 -25.69773,-10.547269 0,-6.14493 6.12722,-11.831283 18.56455,-17.150775 8.50494,-3.760331 19.93631,-7.245515 34.38556,-10.547269 l -3.56659,-8.896392 c -10.79121,2.568031 -19.93631,5.227777 -27.43528,7.979238 -1.18887,-2.751461 -2.10338,-5.594638 -2.65209,-8.52953 -0.9145,-4.585769 -1.55466,-11.189276 -1.73756,-19.8105217 z"
     id="path523" />
  <path
     d="m 134.47915,111.58637 -1.28032,9.17154 c 8.13914,1.46745 18.01585,2.20117 29.72157,2.20117 3.65804,0 7.59043,-0.27515 11.70573,-0.82544 -3.84095,1.74259 -7.86478,3.94376 -12.07153,6.51179 l 5.66995,7.42895 c 6.76738,-4.95263 15.27232,-10.18041 25.51482,-15.4999 l -3.56658,-7.79581 c -7.49898,0.73372 -16.64408,1.10059 -27.25239,1.10059 -10.69976,0 -20.21066,-0.82544 -28.44125,-2.29289 z m 5.39561,30.44951 c -7.49899,7.70409 -11.24848,14.21588 -11.24848,19.62709 0,11.55614 11.79719,17.3342 35.39153,17.3342 11.15702,0 21.85678,-0.91715 32.19075,-2.75146 l -1.55467,-9.26325 c -10.33396,1.74259 -20.57647,2.65975 -30.63608,2.65975 -16.82697,0 -25.24046,-2.84318 -25.24046,-8.52953 0,-2.56803 2.92642,-6.87866 8.77929,-13.02359 z"
     id="path525" />
  <path
     d="m 184.8857,205.30033 c -8.9441,0 -17.83795,0.30236 -26.68156,0.90707 l 0.85421,5.19049 c 7.73815,-0.55432 16.23003,-0.80629 25.52587,-0.80629 z m -23.71694,15.2691 c -2.3114,3.98105 -3.4671,7.2566 -3.4671,9.77625 0,3.22516 1.45719,5.54324 4.47205,7.00464 2.81387,1.36061 7.13518,2.06611 13.01417,2.06611 2.61289,0 6.48197,-0.20157 11.60724,-0.60471 l -0.30149,-5.39206 c -4.07007,0.50393 -7.83865,0.7559 -11.30575,0.7559 -3.71833,0 -6.58246,-0.30236 -8.49187,-0.90708 -2.26115,-0.7055 -3.3666,-1.76376 -3.3666,-3.22516 0,-1.71336 0.95471,-4.03144 2.91437,-6.95424 z m -11.50675,-20.66116 c -2.06016,7.71014 -3.06511,15.2691 -3.06511,22.67688 0,6.95424 1.1557,13.25338 3.46709,18.94779 l 5.12527,-1.86454 c -2.06015,-4.98891 -3.0651,-10.68333 -3.0651,-17.08325 0,-7.10542 0.9547,-14.26124 2.86411,-21.41705 z"
     id="path528" />
  <path
     d="m 178.65498,260.002 -4.42181,3.32594 c 5.12528,5.99678 7.9894,14.41242 8.59238,25.24693 l 5.5775,-0.25197 c -0.60297,-11.99355 -3.86908,-21.46744 -9.74807,-28.3209 z m -33.16354,0 c -0.75371,4.93852 -1.10545,9.62508 -1.10545,14.16045 0,6.70228 1.05521,11.99355 3.21586,15.82342 2.16065,3.82988 5.17553,5.74481 9.0446,5.74481 2.4119,0 4.42181,-1.10864 6.02974,-3.27555 1.50743,-2.1165 2.81387,-5.44245 3.86908,-9.97782 l -5.47701,-1.36061 c -0.40198,2.1165 -0.85421,3.88026 -1.35669,5.29127 -0.90447,2.51965 -2.00991,3.82987 -3.21586,3.82987 -1.60793,0 -3.01487,-1.25983 -4.22081,-3.67869 -1.50744,-2.97319 -2.26115,-7.10543 -2.26115,-12.3967 0,-4.58577 0.35173,-9.07075 1.0552,-13.45495 z"
     id="path531" />
  <path
     d="m 185.33794,324.91633 c -7.13519,0 -14.8231,0.30236 -23.16423,0.95747 l 0.30149,5.14009 c 8.24063,-0.65511 15.8783,-0.95747 22.86274,-0.95747 z m -14.87334,-8.06289 c -3.46711,0.40315 -7.08495,0.7559 -10.85353,1.00786 l 1.20595,-7.20621 -5.47701,-0.7055 c -0.45223,2.82201 -0.90446,5.54324 -1.35669,8.21407 -3.41685,0.10079 -6.98445,0.20157 -10.60229,0.20157 l 0.25125,5.1401 c 3.2661,-0.10079 6.38147,-0.15118 9.34609,-0.25197 -0.60298,2.82201 -1.2562,5.59363 -1.90942,8.26446 -1.90941,7.55896 -4.12032,14.21085 -6.58246,19.85487 l 5.32627,1.71336 c 2.41189,-5.84559 4.62279,-12.64865 6.58246,-20.40919 0.75371,-3.12437 1.50743,-6.34952 2.21089,-9.72586 4.77354,-0.30236 9.0446,-0.65511 12.76294,-1.15904 z m -7.18544,19.6533 c -2.26115,2.8724 -3.3666,5.69441 -3.3666,8.41564 0,5.14009 5.02478,7.76053 15.17483,7.76053 4.17056,0 7.83866,-0.30236 10.95402,-0.80629 l -0.15074,-5.14009 c -3.26611,0.60472 -6.88395,0.95747 -10.80328,0.95747 -3.01487,0 -5.32627,-0.25197 -6.9342,-0.7559 -1.85916,-0.55432 -2.76362,-1.411 -2.76362,-2.62044 0,-1.411 0.85421,-3.17476 2.56263,-5.34166 z"
     id="path534" />
  <path
     d="m 297.74223,99.092915 -2.71338,2.116515 c 2.11041,2.01572 3.86908,4.28341 5.32627,6.80307 l 2.96462,-2.16691 c -1.30645,-2.31808 -3.16561,-4.58577 -5.57751,-6.752675 z m -4.92428,3.829885 -2.76363,2.1165 c 2.16065,2.06612 3.96957,4.33381 5.37652,6.80307 l 2.91437,-2.06612 c -1.40694,-2.51965 -3.26611,-4.83773 -5.52726,-6.85345 z m 9.09484,13.35416 c -7.13518,0 -14.82309,0.30236 -23.16422,0.95747 l 0.30149,5.14009 c 8.24063,-0.65511 15.8783,-0.95747 22.86273,-0.95747 z m -14.87333,-8.06289 c -3.46711,0.40314 -7.08495,0.75589 -10.85353,1.00786 l 1.20595,-7.20621 -5.47701,-0.7055 c -0.45223,2.82201 -0.90446,5.54323 -1.35669,8.21407 -3.41685,0.10078 -6.98445,0.20157 -10.60229,0.20157 l 0.25125,5.14009 c 3.2661,-0.10078 6.38147,-0.15118 9.34608,-0.25196 -0.60297,2.82201 -1.25619,5.59363 -1.90941,8.26446 -1.90941,7.55896 -4.12032,14.21084 -6.58246,19.85487 l 5.32627,1.71336 c 2.41188,-5.84559 4.62279,-12.64866 6.58246,-20.40919 0.75371,-3.12437 1.50743,-6.34953 2.21089,-9.72586 4.77354,-0.30236 9.0446,-0.65511 12.76294,-1.15904 z m -7.18544,19.65329 c -2.26115,2.87241 -3.3666,5.69442 -3.3666,8.41564 0,5.1401 5.02478,7.76054 15.17483,7.76054 4.17056,0 7.83866,-0.30236 10.95402,-0.80629 l -0.15074,-5.14009 c -3.26611,0.60471 -6.88395,0.95746 -10.80328,0.95746 -3.01487,0 -5.32627,-0.25196 -6.9342,-0.75589 -1.85916,-0.55433 -2.76362,-1.41101 -2.76362,-2.62044 0,-1.41101 0.85421,-3.17476 2.56263,-5.34167 z"
     id="path537" />
  <path
     d="m 172.9991,374.94658 c -4.72329,0 -11.55699,1.20943 -20.5011,3.67869 l 1.45719,4.83773 c 8.84361,-2.31808 15.22508,-3.47712 19.04391,-3.47712 2.56264,0 4.57255,0.60472 6.07998,1.81415 1.45719,1.20944 2.21091,2.72123 2.21091,4.58577 0,2.9228 -1.2562,5.03931 -3.76859,6.45031 -2.86412,1.56219 -7.78841,2.46926 -14.7226,2.67084 l 1.30644,4.88812 c 7.63766,-0.30235 13.21517,-1.411 16.83302,-3.42672 3.91931,-2.2173 5.92923,-5.79521 5.92923,-10.63294 0,-3.47712 -1.30644,-6.24874 -3.91933,-8.36525 -2.56264,-2.01572 -5.87899,-3.02358 -9.94906,-3.02358 z"
     id="path540" />
  <path
     d="m 289.57397,161.88268 c -4.72329,0 -11.55699,1.20944 -20.5011,3.6787 l 1.45719,4.83773 c 8.84361,-2.31808 15.22508,-3.47712 19.04391,-3.47712 2.56264,0 4.57255,0.60472 6.07998,1.81415 1.45719,1.20943 2.21091,2.72122 2.21091,4.58577 0,2.9228 -1.2562,5.0393 -3.76859,6.45031 -2.86413,1.56219 -7.78841,2.46926 -14.7226,2.67083 l 1.30644,4.88813 c 7.63767,-0.30236 13.21517,-1.41101 16.83301,-3.42673 3.91933,-2.21729 5.92924,-5.7952 5.92924,-10.63294 0,-3.47712 -1.30644,-6.24874 -3.91933,-8.36524 -2.56264,-2.01573 -5.87899,-3.02359 -9.94906,-3.02359 z"
     id="path543" />
  <path
     d="m 185.58918,419.50211 c -12.56195,0.10078 -26.43033,0.95747 -41.60517,2.67083 l 0.70347,5.0897 c 7.03469,-0.90707 14.6221,-1.66297 22.66176,-2.31808 -3.21587,2.11651 -5.67801,4.3842 -7.48693,6.85346 -2.41189,3.12437 -3.56759,6.60149 -3.56759,10.38097 0,4.63616 1.80892,8.26446 5.477,10.8849 4.01983,2.82201 9.99931,4.3338 17.98871,4.43459 l 0.95471,-4.93852 c -6.48197,-0.20157 -11.356,-1.36061 -14.57186,-3.37634 -2.91437,-1.86454 -4.3213,-4.3338 -4.3213,-7.35738 0,-2.87241 0.95471,-5.69442 2.91437,-8.51643 1.60792,-2.41887 3.61784,-4.48498 6.07998,-6.19835 2.2109,-1.61258 4.01982,-2.41887 5.37651,-2.41887 l 9.49683,-0.35275 z"
     id="path546" />
  <path
     d="m 302.16404,204.43761 c -12.56195,0.10079 -26.43033,0.95747 -41.60517,2.67083 l 0.70347,5.0897 c 7.03469,-0.90707 14.62211,-1.66297 22.66175,-2.31808 -3.21586,2.11651 -5.678,4.3842 -7.48692,6.85346 -2.4119,3.12437 -3.56759,6.60149 -3.56759,10.38097 0,4.63616 1.80892,8.26446 5.47701,10.8849 4.01982,2.82201 9.99931,4.3338 17.9887,4.43459 l 0.95471,-4.93852 c -6.48196,-0.20157 -11.356,-1.36061 -14.57186,-3.37634 -2.91437,-1.86454 -4.3213,-4.3338 -4.3213,-7.35738 0,-2.87241 0.9547,-5.69442 2.91437,-8.51643 1.60792,-2.41887 3.61784,-4.48498 6.07998,-6.19835 2.2109,-1.61258 4.01982,-2.41886 5.37651,-2.41886 l 9.49683,-0.35276 z"
     id="path549" />
  <path
     d="m 179.02884,482.08022 -3.06512,2.82201 c 2.11041,1.66297 4.01983,3.42673 5.82875,5.34166 1.60793,1.71337 3.0651,3.52752 4.4218,5.44245 l 3.51734,-2.92279 c -1.40693,-1.96533 -2.96462,-3.77948 -4.57255,-5.44245 -1.90941,-1.96533 -3.91933,-3.72909 -6.13022,-5.24088 z"
     id="path552" />
  <path
     d="m 295.9665,265.89397 -3.06512,2.82201 c 2.11041,1.66297 4.01983,3.42673 5.82875,5.34166 1.60792,1.71337 3.0651,3.52752 4.4218,5.44246 l 3.51734,-2.9228 c -1.40694,-1.96533 -2.96462,-3.77948 -4.57255,-5.44245 -1.90941,-1.96533 -3.91933,-3.72909 -6.13022,-5.24088 z"
     id="path555" />
  <path
     d="m 65.896954,294.86998 c -8.944105,0 -17.837963,0.30236 -26.681573,0.90708 l 0.854212,5.19048 c 7.738159,-0.55432 16.230035,-0.80629 25.525875,-0.80629 z M 42.18,310.13908 c -2.311399,3.98105 -3.467097,7.2566 -3.467097,9.77625 0,3.22516 1.457186,5.54324 4.472053,7.00464 2.813875,1.36061 7.135185,2.06612 13.014176,2.06612 2.612885,0 6.481964,-0.20158 11.607238,-0.60472 l -0.301487,-5.39206 c -4.07007,0.50393 -7.838654,0.7559 -11.305751,0.7559 -3.718336,0 -6.58246,-0.30236 -8.491875,-0.90708 -2.261151,-0.7055 -3.366602,-1.76376 -3.366602,-3.22515 0,-1.71337 0.954708,-4.03145 2.914371,-6.95425 z M 30.673258,289.47792 c -2.06016,7.71014 -3.065115,15.2691 -3.065115,22.67688 0,6.95424 1.155699,13.25338 3.467097,18.94779 l 5.125274,-1.86454 c -2.06016,-4.98891 -3.065115,-10.68333 -3.065115,-17.08325 0,-7.10542 0.954708,-14.26124 2.864123,-21.41705 z"
     id="path558" />
  <path
     d="m 53.535999,345.71658 -2.110407,4.73695 c 2.411894,0.7559 4.77354,1.76376 7.034691,3.07398 2.261149,1.31022 4.421804,2.8724 6.532211,4.68655 l 3.467097,-3.82987 c -2.26115,-2.01572 -4.622796,-3.72909 -7.03469,-5.14009 -2.512389,-1.4614 -5.175521,-2.62044 -7.888902,-3.52752 z m -4.723291,2.62044 c -2.612885,0.20157 -5.426761,0.40315 -8.341133,0.55433 0.552726,-2.11651 1.055204,-4.33381 1.507434,-6.5511 l -5.276018,-1.20944 c -0.602972,2.72123 -1.205946,5.39206 -1.859167,7.96211 -3.115363,0.0504 -6.331221,0.10078 -9.647575,0.10078 v 4.93852 c 2.763628,0 5.477009,-0.0504 8.190389,-0.10078 -0.552726,1.61258 -1.105451,3.17476 -1.658177,4.68655 -2.311398,6.09756 -5.024779,11.38884 -8.240637,15.87382 l 4.572548,2.9228 c 3.316355,-5.03931 6.180478,-10.58255 8.592371,-16.62971 0.854213,-2.31809 1.658177,-4.63617 2.411894,-7.05503 3.41685,-0.15118 6.783451,-0.35275 10.099806,-0.60472 z m 8.994353,8.36525 -5.376513,0.25197 c 0.200991,4.83773 0.351734,8.718 0.45223,11.69119 -1.909416,-0.50393 -3.818832,-0.70551 -5.627752,-0.70551 -2.914371,0 -5.326265,0.65511 -7.23568,1.96533 -2.311398,1.5118 -3.41685,3.6283 -3.41685,6.39992 0,2.82202 1.205947,4.93852 3.668088,6.45032 2.009912,1.20943 4.522301,1.81415 7.537168,1.81415 3.316354,0 5.828743,-0.80629 7.637663,-2.36848 1.557682,-1.411 2.512389,-3.47712 2.864123,-6.14795 2.210903,1.31022 4.773541,3.12437 7.687912,5.54324 l 3.366602,-3.98106 c -3.818832,-3.12437 -7.48692,-5.49284 -11.004266,-7.10542 -0.100495,-3.07398 -0.301486,-7.65974 -0.552725,-13.8077 z m -4.823788,16.98246 c 0,1.96533 -0.452229,3.47713 -1.256194,4.48499 -0.90446,1.00786 -2.210902,1.56218 -3.919327,1.56218 -1.457186,0 -2.713381,-0.25196 -3.718336,-0.7055 -1.406938,-0.60472 -2.06016,-1.51179 -2.06016,-2.72123 0,-1.00786 0.452231,-1.81415 1.457186,-2.51965 0.954708,-0.7055 2.210903,-1.00786 3.768584,-1.00786 1.859168,0 3.768584,0.30236 5.728247,0.90707 z"
     id="path561" />
  <path
     d="m 53.08377,403.41664 c -3.818832,0 -8.491876,2.31808 -14.019133,6.95425 v -0.45354 l 2.210903,-4.43459 -2.060159,-1.76376 0.200991,-7.60935 -5.276018,-0.0504 -0.20099,7.86131 -9.044602,0.55433 0.251239,4.93852 8.692867,-0.55433 -0.200992,6.50071 c -3.366601,3.32594 -6.984442,7.40778 -10.853521,12.19512 l 4.271062,3.32594 c 2.311398,-2.8724 4.472053,-5.39206 6.381468,-7.50856 -0.100495,5.24088 -0.150743,10.63293 -0.150743,16.07538 h 5.276018 c 0,-6.04716 0.100495,-13.35416 0.301486,-21.92098 l 0.753717,-0.7559 c 5.678,-5.59363 10.150052,-8.36524 13.416159,-8.36524 2.261149,0 3.416849,1.00786 3.416849,3.07397 0,1.41101 -0.301486,4.53538 -0.90446,9.27233 -0.602974,4.73694 -0.90446,7.65974 -0.90446,8.76839 0,5.14009 2.361646,7.71014 7.135185,7.71014 2.060159,0 3.869079,-0.60472 5.376513,-1.76376 1.004955,-0.90707 2.311398,-2.46926 3.919327,-4.73695 l -4.371557,-3.22515 c -1.708425,3.07397 -3.316354,4.63616 -4.924283,4.63616 -1.105452,0 -1.658177,-0.90708 -1.658177,-2.62044 0,-1.10865 0.251239,-4.03145 0.854213,-8.76839 0.552726,-4.73695 0.854212,-7.86132 0.854212,-9.27233 0,-2.51965 -0.753717,-4.53537 -2.261151,-5.94638 -1.507433,-1.411 -3.668088,-2.11651 -6.481963,-2.11651 z"
     id="path564" />
  <path
     d="m 56.952849,452.14674 -26.0786,0.80629 0.301486,4.98891 19.546389,-1.05826 -23.767202,19.6533 3.316353,3.52751 c 3.065115,-2.72122 6.180478,-4.78734 9.346088,-6.24874 3.718336,-1.71336 7.436672,-2.57004 11.255504,-2.57004 2.813875,0 5.024778,0.50393 6.532212,1.51179 1.708424,1.15904 2.562636,2.97319 2.562636,5.39206 0,2.9228 -1.708424,5.24088 -5.024778,6.95424 -0.703469,-2.41887 -1.758672,-4.3338 -3.16561,-5.74481 -2.06016,-2.1669 -4.874035,-3.22515 -8.441628,-3.22515 -2.813876,0 -5.024779,0.80628 -6.682956,2.41886 -1.557681,1.4614 -2.311398,3.22516 -2.311398,5.34167 0,2.36847 1.055204,4.23301 3.215859,5.64402 2.110407,1.36061 4.974531,2.06612 8.692867,2.06612 5.627751,0 10.2003,-1.20944 13.767893,-3.6283 3.517344,-2.46926 5.326264,-5.74481 5.326264,-9.82665 0,-3.52752 -1.205946,-6.34953 -3.61784,-8.46604 -2.411893,-2.11651 -5.828743,-3.17476 -10.250547,-3.17476 -2.562638,0 -5.125275,0.50393 -7.73816,1.61258 5.326265,-4.18263 10.65253,-8.31486 16.029043,-12.44709 z m -6.783451,34.51925 c -1.256195,0.20157 -2.562637,0.35275 -3.919327,0.35275 -2.51239,0 -4.32131,-0.40315 -5.477009,-1.20944 -0.803964,-0.60471 -1.205947,-1.25982 -1.205947,-1.96533 0,-0.85668 0.301486,-1.56218 1.004956,-2.1165 0.703469,-0.60472 1.607929,-0.90708 2.763628,-0.90708 3.467097,0 5.728247,1.91494 6.833699,5.8456 z"
     id="path567" />
  <path
     d="m 39.969098,505.26103 c -5.024779,11.33844 -10.45154,24.59181 -16.230034,39.81052 l 5.477008,1.411 4.773539,-12.49748 c 0.753717,-2.01572 2.06016,-3.82987 3.86908,-5.49284 1.80892,-1.71336 3.416849,-2.51965 4.823787,-2.51965 1.557681,0 2.361646,1.15904 2.361646,3.47712 0,0.55432 -0.05024,2.06611 -0.150744,4.48498 -0.100495,2.41887 -0.150743,3.88027 -0.150743,4.28341 0,2.51965 0.854212,4.58577 2.562637,6.19835 1.708424,1.56218 3.969575,2.36847 6.783451,2.36847 3.969575,0 7.03469,-1.71336 9.195345,-5.14009 1.909415,-2.97319 3.567592,-8.11328 4.97453,-15.36989 l -5.426761,-1.10864 c -1.105451,6.34952 -2.462141,10.83451 -3.969575,13.40455 -1.256195,2.01573 -2.864124,3.07398 -4.773539,3.07398 -1.205947,0 -2.160655,-0.35275 -2.864124,-0.95747 -0.703469,-0.60472 -1.055203,-1.4614 -1.055203,-2.46926 0,-0.40314 0.05024,-1.86454 0.150743,-4.28341 0.100496,-2.41887 0.150743,-3.93066 0.150743,-4.48498 0,-2.36848 -0.552726,-4.33381 -1.607929,-5.8456 -1.306442,-1.81415 -3.115362,-2.67083 -5.42676,-2.67083 -1.055204,0 -2.110408,0.25197 -3.115363,0.7559 -1.004955,0.50393 -1.959663,1.20943 -2.864124,2.1165 2.361646,-5.29127 4.974531,-10.8345 7.838655,-16.62971 z"
     id="path570" />
  <path
     d="m 62.178618,554.64623 -2.71338,2.11651 c 2.110407,2.01572 3.869079,4.28341 5.326265,6.80306 l 2.96462,-2.1669 c -1.306443,-2.31808 -3.165612,-4.58577 -5.577505,-6.75267 z m -4.924283,3.82987 -2.763628,2.11651 c 2.160655,2.06612 3.969576,4.33381 5.376513,6.80307 l 2.914371,-2.06612 c -1.406938,-2.51965 -3.266105,-4.83773 -5.527256,-6.85346 z m 9.09485,13.35417 c -7.135186,0 -14.823097,0.30235 -23.164229,0.95746 l 0.301486,5.1401 c 8.240637,-0.65511 15.878301,-0.95747 22.862743,-0.95747 z m -14.873344,-8.06289 c -3.467098,0.40314 -7.084939,0.75589 -10.853523,1.00786 l 1.205948,-7.20621 -5.477009,-0.7055 c -0.45223,2.82201 -0.90446,5.54323 -1.35669,8.21407 -3.416849,0.10078 -6.984442,0.20157 -10.602283,0.20157 l 0.25124,5.14009 c 3.266105,-0.10079 6.381468,-0.15118 9.346087,-0.25197 -0.602973,2.82202 -1.256195,5.59363 -1.909416,8.26447 -1.909415,7.55896 -4.120318,14.21084 -6.582459,19.85486 l 5.326265,1.71337 c 2.411894,-5.8456 4.622796,-12.64866 6.582459,-20.40919 0.753717,-3.12437 1.507434,-6.34953 2.210903,-9.72586 4.773539,-0.30236 9.044601,-0.65511 12.762938,-1.15904 z m -7.185434,19.65329 c -2.261151,2.87241 -3.366601,5.69442 -3.366601,8.41564 0,5.1401 5.024778,7.76053 15.17483,7.76053 4.170567,0 7.838655,-0.30235 10.954018,-0.80628 l -0.150745,-5.1401 c -3.266105,0.60472 -6.883945,0.95747 -10.803273,0.95747 -3.014866,0 -5.326264,-0.25196 -6.934193,-0.75589 -1.859169,-0.55433 -2.763629,-1.41101 -2.763629,-2.62044 0,-1.41101 0.854212,-3.17477 2.562637,-5.34167 z"
     id="path573" />
</svg>
