<?xml version="1.0" encoding="UTF-8" standalone="no"?>
<svg
   width="1024"
   height="648"
   viewBox="0 0 1024 648"
   version="1.1"
   id="svg20"
   fill="#222"
   sodipodi:docname="itnav-catch-base.svg"
   inkscape:version="1.2.2 (b0a84865, 2022-12-01)"
   xmlns:inkscape="http://www.inkscape.org/namespaces/inkscape"
   xmlns:sodipodi="http://sodipodi.sourceforge.net/DTD/sodipodi-0.dtd"
   xmlns="http://www.w3.org/2000/svg"
   xmlns:svg="http://www.w3.org/2000/svg">
  <defs
     id="defs24" />
  <sodipodi:namedview
     id="namedview22"
     pagecolor="#ffffff"
     bordercolor="#000000"
     borderopacity="0.25"
     inkscape:showpageshadow="2"
     inkscape:pageopacity="0.0"
     inkscape:pagecheckerboard="0"
     inkscape:deskcolor="#d1d1d1"
     showgrid="false"
     inkscape:zoom="0.33943123"
     inkscape:cx="244.5267"
     inkscape:cy="462.53846"
     inkscape:window-width="1920"
     inkscape:window-height="1080"
     inkscape:window-x="1728"
     inkscape:window-y="0"
     inkscape:window-maximized="0"
     inkscape:current-layer="svg20" />
  <path
     d="m 105.97552,79.202489 h 20.37273 v 17.55899 h -20.37273 z m 0,33.612931 h 20.37273 v 19.56574 h -20.37273 z m 0,36.28858 h 61.96004 v -16.72284 h -24.58197 v -19.56574 h 19.86762 V 96.761479 h -19.86762 v -17.55899 h 19.19414 V 63.148549 H 143.35359 V 45.08787 h 23.57175 V 28.365019 H 145.54239 C 143.52196,20.003592 140.4913,10.638795 136.78717,0.60508383 L 119.9502,5.2874825 c 3.36739,7.3580555 6.39805,15.0505665 9.09196,23.0775365 h -22.7299 c 2.35717,-7.692512 4.54598,-15.385025 6.22967,-23.4119937 L 96.041706,1.608455 C 91.664094,25.020447 84.087459,46.592927 73.648539,66.325892 l 5.892938,18.395137 c 3.030655,-4.682398 6.061309,-9.699255 8.923593,-14.71611 v 86.289921 h 17.51045 z M 126.34825,45.08787 V 63.148549 H 105.97552 V 45.08787 Z M 35.596991,147.43172 H 56.97994 v 6.68914 H 73.648539 V 94.58751 H 18.760023 v 61.70733 H 35.596991 Z M 56.97994,131.54502 H 35.596991 V 110.47421 H 56.97994 Z M 13.203823,21.341421 V 37.395358 H 78.36289 V 21.341421 H 55.969722 C 54.117656,15.321193 51.76048,8.7992814 48.729826,1.608455 L 31.724488,6.1236251 c 2.693915,5.0168559 5.051091,10.0337099 7.239896,15.2177959 z M 20.27535,46.425698 V 61.643493 H 72.133211 V 46.425698 Z m 0,23.244765 V 85.055486 H 72.133211 V 69.670463 Z"
     id="path325" />
  <path
     d="m 264.09649,66.056519 -4.57055,3.530781 c 3.55487,3.362649 6.51727,7.14563 8.97182,11.348942 l 4.99376,-3.614848 c -2.20064,-3.867047 -5.33232,-7.650027 -9.39503,-11.264875 z m -8.29471,6.389033 -4.65519,3.530781 c 3.63951,3.446716 6.68655,7.229696 9.05646,11.348942 l 4.90912,-3.446716 c -2.36992,-4.203311 -5.50159,-8.070358 -9.31039,-11.433007 z M 271.1216,94.7231 c -12.01886,0 -24.96877,0.504397 -39.01899,1.597259 l 0.50784,8.574751 c 13.88094,-1.09286 26.74621,-1.59726 38.51115,-1.59726 z M 246.06819,81.272506 c -5.84015,0.67253 -11.93422,1.260993 -18.28221,1.681325 l 2.03135,-12.021471 -9.22575,-1.176927 c -0.76175,4.707708 -1.52351,9.247284 -2.28527,13.702794 -5.75552,0.168134 -11.76495,0.336266 -17.85902,0.336266 l 0.4232,8.574753 c 5.50159,-0.168133 10.74927,-0.252199 15.74302,-0.420332 -1.01568,4.707709 -2.116,9.331346 -3.21632,13.786866 -3.21631,12.60994 -6.94047,23.70667 -11.08782,33.12209 l 8.97183,2.85825 c 4.06271,-9.75168 7.78687,-21.10062 11.08782,-34.04682 1.2696,-5.21211 2.5392,-10.592346 3.72416,-16.224783 8.04079,-0.504398 15.23518,-1.092859 21.49853,-1.933521 z m -12.1035,32.785824 c -3.8088,4.79178 -5.67088,9.49948 -5.67088,14.03906 0,8.57475 8.46399,12.9462 25.56125,12.9462 7.02511,0 13.20383,-0.5044 18.4515,-1.34506 l -0.25392,-8.57475 c -5.50159,1.00879 -11.59567,1.59726 -18.19758,1.59726 -5.07839,0 -8.97183,-0.42034 -11.6803,-1.26099 -3.13168,-0.92474 -4.6552,-2.35386 -4.6552,-4.37145 0,-2.35385 1.43888,-5.29618 4.31664,-8.91102 z"
     id="path316" />
  <path
     d="m 330.62329,96.824756 c -7.95615,0 -19.46717,2.017589 -34.53308,6.136834 l 2.45456,8.07035 c 14.89662,-3.86704 25.64589,-5.80056 32.07852,-5.80056 4.31664,0 7.70223,1.00879 10.24143,3.02638 2.45455,2.01759 3.72415,4.53958 3.72415,7.65003 0,4.87584 -2.11599,8.40662 -6.34799,10.76048 -4.82447,2.60604 -13.11918,4.11924 -24.79949,4.45551 l 2.20064,8.15442 c 12.86526,-0.5044 22.26029,-2.35386 28.35436,-5.7165 6.60192,-3.69892 9.98751,-9.66763 9.98751,-17.73798 0,-5.80057 -2.20064,-10.42421 -6.60191,-13.955 -4.31663,-3.36264 -9.90287,-5.043964 -16.7587,-5.043964 z"
     id="path318" />
  <path
     d="m 449.28826,77.657658 c -21.15998,0.168133 -44.52059,1.597258 -70.08183,4.45551 l 1.18495,8.490687 c 11.84959,-1.51319 24.63021,-2.774183 38.1726,-3.867044 -5.41696,3.530781 -9.56431,7.313759 -12.61135,11.433005 -4.06271,5.212104 -6.00943,11.012674 -6.00943,17.317644 0,7.73409 3.04704,13.78685 9.22575,18.1583 6.77119,4.70772 16.84334,7.2297 30.30108,7.39783 l 1.60816,-8.23849 c -10.91855,-0.33626 -19.12862,-2.26979 -24.54557,-5.63244 -4.90911,-3.11045 -7.27903,-7.22969 -7.27903,-12.27367 0,-4.79177 1.60816,-9.49948 4.90911,-14.20718 2.70848,-4.035187 6.09407,-7.481902 10.24143,-10.340152 3.72415,-2.690119 6.77119,-4.035178 9.05647,-4.035178 l 15.99694,-0.588464 z"
     id="path320" />
  <path
     d="m 476.20357,124.90288 -5.16303,4.7077 c 3.55487,2.77419 6.77119,5.71651 9.81822,8.91102 2.70848,2.85825 5.16304,5.88464 7.44832,9.07916 l 5.92479,-4.87585 c -2.36992,-3.27858 -4.99376,-6.30497 -7.70223,-9.07915 -3.21632,-3.27858 -6.60191,-6.2209 -10.32607,-8.74288 z"
     id="path322" />
  <path
     d="m 133.89667,210.85019 -8.99367,6.94766 c 6.99508,6.61683 12.82431,14.06075 17.65424,22.3318 l 9.82642,-7.11309 c -4.33028,-7.60935 -10.49261,-15.05328 -18.48699,-22.16637 z m -18.32044,6.94766 -9.16022,6.94767 c 7.16163,6.78224 13.15741,14.22618 17.82079,22.33179 l 9.65987,-6.78224 c -4.66338,-8.27104 -10.82571,-15.88039 -18.32044,-22.49722 z m -49.631742,-3.97008 -18.320441,0.49626 c 0.166549,14.22617 0.999296,25.30935 2.331692,33.41497 1.332396,8.60186 3.497539,16.70749 6.828528,23.98599 -3.497538,1.48878 -6.661978,2.97757 -9.493319,4.63177 -21.484882,11.41403 -32.144048,24.97852 -32.144048,40.69349 0,12.40654 5.329583,21.50467 16.155299,27.12898 10.326067,5.45888 26.814464,8.27103 49.465192,8.27103 21.318329,0 38.972579,-0.99253 53.129279,-2.81215 l -1.66549,-17.70001 c -13.15741,2.3159 -30.31201,3.63926 -51.463789,3.63926 -31.3113,0 -46.800401,-6.45141 -46.800401,-19.02338 0,-11.08318 11.158815,-21.33926 33.809542,-30.93366 15.489101,-6.78224 36.307788,-13.06823 62.622598,-19.02337 l -6.49543,-16.04581 c -19.65283,4.63178 -36.307781,9.42899 -49.964837,14.3916 -2.165144,-4.96261 -3.830638,-10.09066 -4.829935,-15.38412 -1.665495,-8.27103 -2.831341,-20.18132 -3.16444,-35.73085 z"
     id="path328" />
  <path
     d="m 198.35099,230.70066 -2.3317,16.54207 c 14.82291,2.64673 32.81025,3.97009 54.12858,3.97009 6.66198,0 13.82361,-0.49626 21.31833,-1.48878 -6.99507,3.143 -14.32325,7.11308 -21.98453,11.74487 l 10.32607,13.39906 c 12.32466,-8.9327 27.81376,-18.36169 46.4673,-27.95608 l -6.49543,-14.06075 c -13.65705,1.32336 -30.312,1.98504 -49.63174,1.98504 -19.48629,0 -36.80743,-1.48878 -51.79688,-4.13552 z m 9.82642,54.91966 c -13.65706,13.89533 -20.48559,25.6402 -20.48559,35.40001 0,20.84301 21.48488,31.26451 64.45465,31.26451 20.31903,0 39.80532,-1.65421 58.62541,-4.96262 l -2.83134,-16.70749 c -18.82009,3.14299 -37.47363,4.7972 -55.79407,4.7972 -30.64511,0 -45.96766,-5.12804 -45.96766,-15.38412 0,-4.63177 5.32959,-12.40655 15.98875,-23.48972 z"
     id="path330" />
  <path
     d="m 416.88697,285.89873 c -15.0659,0 -30.04716,0.5044 -44.94378,1.51319 l 1.43887,8.65884 c 13.03455,-0.92475 27.33869,-1.34508 42.99707,-1.34508 z m -39.95003,25.47207 c -3.89344,6.64123 -5.84015,12.10554 -5.84015,16.30885 0,5.38024 2.45455,9.24728 7.53295,11.6852 4.73983,2.26979 12.01886,3.44672 21.92173,3.44672 4.40127,0 10.91855,-0.33626 19.55181,-1.00879 l -0.50783,-8.99509 c -6.85584,0.84065 -13.20383,1.261 -19.04398,1.261 -6.26335,0 -11.08783,-0.50441 -14.30414,-1.5132 -3.8088,-1.17693 -5.67088,-2.94232 -5.67088,-5.38024 0,-2.85825 1.60816,-6.7253 4.90912,-11.60113 z M 357.5544,276.90365 c -3.47023,12.86213 -5.16303,25.47207 -5.16303,37.82979 0,11.60115 1.94672,22.10943 5.84015,31.60891 l 8.63327,-3.11044 c -3.47023,-8.32256 -5.16303,-17.82205 -5.16303,-28.49847 0,-11.85333 1.60816,-23.79073 4.82447,-35.72814 z"
     id="path333" />
  <path
     d="m 495.26336,284.21741 -7.44832,5.54837 c 8.63327,10.00388 13.45775,24.04294 14.47343,42.11718 l 9.39502,-0.42033 c -1.01567,-20.00776 -6.51727,-35.81222 -16.42013,-47.24522 z m -55.86233,0 c -1.2696,8.23849 -1.86208,16.05665 -1.86208,23.62261 0,11.1808 1.77744,20.00777 5.41695,26.39679 3.63952,6.38904 8.71791,9.58356 15.23518,9.58356 4.06272,0 7.44831,-1.84946 10.15679,-5.46431 2.5392,-3.53078 4.73983,-9.07915 6.51727,-16.64511 l -9.22575,-2.26979 c -0.67712,3.53079 -1.43888,6.4731 -2.28527,8.82695 -1.52352,4.20332 -3.3856,6.38904 -5.41696,6.38904 -2.70847,0 -5.07839,-2.10166 -7.10975,-6.13684 -2.5392,-4.9599 -3.80879,-11.85333 -3.80879,-20.68029 0,-7.65003 0.59248,-15.13192 1.77743,-22.44568 z"
     id="path335" />
  <path
     d="m 595.39219,299.01306 c -12.01887,0 -24.96877,0.5044 -39.019,1.59726 l 0.50784,8.57476 c 13.88095,-1.09286 26.74621,-1.59726 38.51116,-1.59726 z m -25.05341,-13.45059 c -5.84016,0.67253 -11.93423,1.261 -18.28222,1.68132 l 2.03136,-12.02147 -9.22575,-1.17692 c -0.76176,4.7077 -1.52352,9.24729 -2.28528,13.70279 -5.75551,0.16813 -11.76494,0.33626 -17.85902,0.33626 l 0.4232,8.57476 c 5.5016,-0.16813 10.74927,-0.25219 15.74302,-0.42033 -1.01567,4.70771 -2.11599,9.33135 -3.21631,13.78686 -3.21632,12.60994 -6.94047,23.70667 -11.08783,33.12209 l 8.97183,2.85825 c 4.06272,-9.75168 7.78687,-21.10062 11.08783,-34.04681 1.2696,-5.21212 2.53919,-10.59236 3.72415,-16.2248 8.04079,-0.50439 15.23518,-1.09285 21.49853,-1.93351 z m -12.10351,32.78583 c -3.80879,4.79177 -5.67087,9.49949 -5.67087,14.03905 0,8.57477 8.46399,12.94621 25.56125,12.94621 7.02511,0 13.20382,-0.5044 18.45149,-1.34507 l -0.25392,-8.57475 c -5.50159,1.0088 -11.59566,1.59726 -18.19757,1.59726 -5.0784,0 -8.97183,-0.42033 -11.68031,-1.26099 -3.13167,-0.92473 -4.65519,-2.35386 -4.65519,-4.37145 0,-2.35385 1.43888,-5.29617 4.31663,-8.91101 z"
     id="path337" />
  <path
     d="m 654.89386,301.11471 c -7.95615,0 -19.46718,2.0176 -34.53308,6.13684 l 2.45456,8.07037 c 14.89662,-3.86705 25.64589,-5.80057 32.07852,-5.80057 4.31663,0 7.70223,1.00879 10.24142,3.02638 2.45456,2.01759 3.72416,4.53958 3.72416,7.65002 0,4.87585 -2.116,8.40663 -6.34799,10.76048 -4.82448,2.60605 -13.11919,4.11925 -24.79949,4.45551 l 2.20064,8.15443 c 12.86526,-0.5044 22.26029,-2.35385 28.35436,-5.7165 6.60191,-3.69892 9.98751,-9.66762 9.98751,-17.73799 0,-5.80056 -2.20064,-10.4242 -6.60191,-13.95499 -4.31664,-3.36264 -9.90287,-5.04398 -16.7587,-5.04398 z"
     id="path339" />
  <path
     d="m 773.55885,281.94762 c -21.15997,0.16813 -44.52058,1.59727 -70.08183,4.45551 l 1.18496,8.49069 c 11.84958,-1.51319 24.63021,-2.77419 38.17259,-3.86704 -5.41695,3.53077 -9.56431,7.31375 -12.61134,11.43301 -4.06272,5.21209 -6.00944,11.01266 -6.00944,17.31763 0,7.73409 3.04704,13.78686 9.22575,18.15831 6.77119,4.70771 16.84334,7.22969 30.30108,7.39783 l 1.60816,-8.23849 c -10.91854,-0.33627 -19.12861,-2.26979 -24.54557,-5.63244 -4.90911,-3.11044 -7.27903,-7.2297 -7.27903,-12.27367 0,-4.79178 1.60816,-9.49948 4.90912,-14.2072 2.70847,-4.03517 6.09407,-7.48189 10.24142,-10.34014 3.72416,-2.69011 6.77119,-4.03518 9.05647,-4.03518 l 15.99694,-0.58846 z"
     id="path341" />
  <path
     d="m 800.47416,329.19285 -5.16303,4.70769 c 3.55488,2.7742 6.77119,5.7165 9.81823,8.91103 2.70848,2.85825 5.16303,5.88464 7.44831,9.07915 l 5.92479,-4.87584 c -2.36992,-3.27858 -4.99375,-6.30496 -7.70223,-9.07915 -3.21631,-3.27858 -6.60191,-6.2209 -10.32607,-8.74288 z"
     id="path343" />
  <path
     d="m 0,461.80777 v 26.75024 H 31.466018 V 637.40585 H 233.86185 v -28.0745 H 59.732102 V 488.55801 H 105.0645 v 83.42894 h 100.53126 v -83.42894 h 37.33257 v -26.75024 h -37.33257 v -59.32726 h -27.4661 v 59.32726 H 132.5306 v -59.32726 h -27.4661 v 59.32726 H 59.732102 V 405.12905 H 31.466018 v 56.67872 z m 132.5306,26.75024 h 45.59906 v 56.41386 H 132.5306 Z"
     id="path346" />
  <path
     d="m 307.45982,410.16127 v 111.23861 h 44.26575 c -17.06631,15.36151 -42.13246,28.0745 -75.73177,38.13895 l 14.93303,24.10169 c 22.93286,-9.26989 42.66578,-19.86403 59.19878,-31.78245 -0.53333,15.89122 -3.4666,28.86906 -8.53316,38.9335 -7.19985,13.77241 -22.39954,25.42598 -45.59906,34.96071 L 314.39301,648 c 28.79941,-12.71298 46.93236,-28.60422 54.39888,-47.67369 6.39987,-15.09666 9.5998,-33.37157 9.5998,-54.82473 H 358.3921 c 9.06648,-7.41591 17.06632,-15.62639 23.99951,-24.1017 h 38.39921 c 5.86654,8.47531 13.59972,16.42094 22.66619,24.36654 h -14.3997 v 101.96873 h 27.99942 v -91.37456 c 15.46635,11.12385 34.66596,20.92344 57.59882,29.66361 l 11.99975,-24.36654 c -33.33265,-10.06445 -58.66546,-23.57199 -75.73177,-40.25778 h 45.86572 V 410.16127 Z m 162.39665,87.40176 h -54.66554 v -20.65859 h 54.66554 z m -81.86498,0 H 334.3926 v -20.65859 h 53.59889 z M 334.3926,454.127 v -19.59917 h 53.59889 V 454.127 Z m 80.79833,-19.59917 h 54.66554 V 454.127 h -54.66554 z"
     id="path348" />
  <path
     d="m 560.25411,508.42204 v 27.5448 h 242.395 v -27.5448 z"
     id="path350" />
  <path
     d="m 619.81518,588.71252 c -13.60791,0 -27.13937,0.45559 -40.59438,1.36676 l 1.29963,7.82086 c 11.77313,-0.83524 24.693,-1.21489 38.83606,-1.21489 z m -36.0839,23.00703 c -3.51665,5.99853 -5.27497,10.93403 -5.27497,14.73058 0,4.85956 2.21702,8.35238 6.80395,10.55437 4.28114,2.05013 10.85575,3.11317 19.80028,3.11317 3.97534,0 9.86191,-0.30372 17.6597,-0.91117 l -0.45869,-8.12461 c -6.19237,0.75931 -11.92604,1.13896 -17.20101,1.13896 -5.65722,0 -10.01481,-0.45558 -12.91987,-1.36674 -3.44021,-1.06304 -5.12208,-2.65758 -5.12208,-4.85958 0,-2.58164 1.45253,-6.07445 4.43404,-10.47844 z m -17.5068,-31.13163 c -3.13441,11.61741 -4.66339,23.00703 -4.66339,34.16887 0,10.47844 1.75833,19.96979 5.27498,28.54996 l 7.79779,-2.80943 c -3.13441,-7.51715 -4.66338,-16.09733 -4.66338,-25.74053 0,-10.70625 1.45252,-21.48842 4.35758,-32.27059 z"
     id="path353" />
  <path
     d="m 681.27998,584.84005 -3.21086,7.13749 c 3.66955,1.13896 7.26265,2.65758 10.70286,4.63178 3.4402,1.97421 6.7275,4.32806 9.93836,7.06157 l 5.27497,-5.77075 c -3.4402,-3.03722 -7.0333,-5.61888 -10.70285,-7.74494 -3.82244,-2.20199 -7.87424,-3.9484 -12.00248,-5.31515 z m -7.1862,3.94841 c -3.97534,0.30372 -8.25648,0.60744 -12.69052,0.83524 0.84094,-3.1891 1.60542,-6.53005 2.29346,-9.87102 l -8.02713,-1.82233 c -0.91739,4.10026 -1.83478,8.1246 -2.82861,11.99707 -4.73984,0.0759 -9.63257,0.15186 -14.6782,0.15186 v 7.44121 c 4.20469,0 8.33293,-0.0759 12.46118,-0.15186 -0.84094,2.42979 -1.68188,4.78365 -2.52282,7.06156 -3.51665,9.18763 -7.64489,17.16037 -12.53762,23.9182 l 6.95685,4.40399 c 5.04563,-7.59308 9.40322,-15.94547 13.07277,-25.05716 1.29963,-3.49282 2.52281,-6.98563 3.66955,-10.63032 5.19852,-0.22778 10.3206,-0.5315 15.36623,-0.91116 z m 13.68436,12.60451 -8.18004,0.37965 c 0.3058,7.28936 0.53515,13.13602 0.68804,17.61593 -2.90506,-0.7593 -5.81012,-1.06302 -8.56228,-1.06302 -4.43404,0 -8.10358,0.98709 -11.00864,2.9613 -3.51665,2.27792 -5.19853,5.46702 -5.19853,9.64321 0,4.25212 1.83477,7.44121 5.58077,9.71915 3.05796,1.82233 6.88041,2.7335 11.46734,2.7335 5.04563,0 8.86808,-1.21489 11.62024,-3.56874 2.36992,-2.12607 3.82245,-5.23923 4.35759,-9.26357 3.36375,1.97421 7.26265,4.70771 11.69669,8.3524 l 5.12207,-5.99853 c -5.81011,-4.70772 -11.39089,-8.27647 -16.74231,-10.70625 -0.1529,-4.63178 -0.4587,-11.54148 -0.84094,-20.80503 z m -7.3391,25.58867 c 0,2.9613 -0.68804,5.23921 -1.91122,6.75784 -1.37608,1.51861 -3.36375,2.35385 -5.96302,2.35385 -2.21702,0 -4.12824,-0.37965 -5.65722,-1.06303 -2.14057,-0.91116 -3.13441,-2.27792 -3.13441,-4.10026 0,-1.51862 0.68804,-2.73351 2.21702,-3.79654 1.45253,-1.06303 3.36376,-1.51862 5.73367,-1.51862 2.82861,0 5.73367,0.45559 8.71518,1.36676 z"
     id="path355" />
  <path
     d="m 760.86317,589.77555 c -5.81012,0 -12.91987,3.49282 -21.32926,10.47844 v -0.68337 l 3.36376,-6.68191 -3.13441,-2.65757 0.3058,-11.46555 -8.02714,-0.0759 -0.3058,11.8452 -13.76081,0.83523 0.38225,7.44122 13.22567,-0.83523 -0.3058,9.79507 c -5.12208,5.01142 -10.6264,11.16182 -16.51297,18.37525 l 6.49816,5.01143 c 3.51665,-4.32805 6.80395,-8.1246 9.70901,-11.31368 -0.15289,7.89679 -0.22934,16.02139 -0.22934,24.22191 h 8.02714 c 0,-9.11169 0.15289,-20.12165 0.45869,-33.02989 l 1.14673,-1.13896 c 8.63873,-8.42832 15.44269,-12.60451 20.41187,-12.60451 3.4402,0 5.19853,1.51861 5.19853,4.63178 0,2.12606 -0.4587,6.83377 -1.37608,13.97127 -0.91739,7.13748 -1.37609,11.54147 -1.37609,13.21195 0,7.74494 3.5931,11.61741 10.85575,11.61741 3.13441,0 5.88657,-0.91116 8.18004,-2.65758 1.52898,-1.36676 3.51665,-3.72061 5.96302,-7.13749 l -6.65106,-4.85957 c -2.59926,4.63177 -5.04563,6.98563 -7.492,6.98563 -1.68187,0 -2.52281,-1.36675 -2.52281,-3.9484 0,-1.67048 0.38224,-6.07447 1.29963,-13.21195 0.84094,-7.1375 1.29963,-11.84521 1.29963,-13.97127 0,-3.79654 -1.14673,-6.83377 -3.4402,-8.95984 -2.29347,-2.12605 -5.58077,-3.18909 -9.86191,-3.18909 z"
     id="path357" />
  <path
     d="m 847.02098,582.71399 -39.677,1.21489 0.4587,7.51715 29.73863,-1.59455 -36.16034,29.61301 5.04563,5.31515 c 4.66338,-4.10025 9.40322,-7.21342 14.2195,-9.41541 5.65722,-2.58166 11.31444,-3.87247 17.12456,-3.87247 4.28114,0 7.64489,0.7593 9.93836,2.27792 2.59927,1.74641 3.8989,4.47991 3.8989,8.1246 0,4.40398 -2.59927,7.89679 -7.6449,10.47844 -1.07028,-3.64467 -2.67571,-6.53005 -4.81628,-8.65611 -3.1344,-3.26502 -7.41555,-4.85958 -12.84342,-4.85958 -4.28114,0 -7.64489,1.21491 -10.16771,3.64469 -2.36992,2.20199 -3.51665,4.85957 -3.51665,8.04866 0,3.56876 1.60543,6.37819 4.89273,8.50425 3.21086,2.05013 7.56845,3.11317 13.22567,3.11317 8.56228,0 15.51913,-1.82234 20.94701,-5.46703 5.35142,-3.7206 8.10358,-8.6561 8.10358,-14.80649 0,-5.31516 -1.83477,-9.56728 -5.50432,-12.75638 -3.66955,-3.1891 -8.86808,-4.78364 -15.59558,-4.78364 -3.8989,0 -7.79779,0.7593 -11.77314,2.42978 8.10359,-6.30225 16.20718,-12.52858 24.38721,-18.75489 z m -10.3206,52.01259 c -1.91123,0.30372 -3.8989,0.53151 -5.96302,0.53151 -3.82245,0 -6.57461,-0.60745 -8.33294,-1.82234 -1.22318,-0.91116 -1.83477,-1.89827 -1.83477,-2.9613 0,-1.29082 0.45869,-2.35385 1.52898,-3.18908 1.07028,-0.91117 2.44636,-1.36677 4.20469,-1.36677 5.27498,0 8.71518,2.88538 10.39706,8.80798 z"
     id="path359" />
  <path
     d="m 901.45247,580.73979 c -7.64489,17.08442 -15.90138,37.05422 -24.69301,59.98532 l 8.33294,2.12606 7.26265,-18.83083 c 1.14673,-3.03723 3.1344,-5.77075 5.88656,-8.27646 2.75217,-2.58166 5.19853,-3.79655 7.3391,-3.79655 2.36992,0 3.5931,1.74642 3.5931,5.23924 0,0.83523 -0.0765,3.11316 -0.22934,6.75784 -0.1529,3.64468 -0.22935,5.84666 -0.22935,6.45411 0,3.79654 1.29963,6.9097 3.89888,9.33949 2.59926,2.35385 6.03946,3.56874 10.3206,3.56874 6.03947,0 10.70285,-2.58164 13.99016,-7.74494 2.90506,-4.47992 5.42787,-12.22485 7.56844,-23.15889 l -8.25648,-1.67048 c -1.68188,9.56729 -3.746,16.32513 -6.03947,20.1976 -1.91122,3.03723 -4.35759,4.63177 -7.26265,4.63177 -1.83477,0 -3.2873,-0.53151 -4.35759,-1.44267 -1.07028,-0.91117 -1.60542,-2.20201 -1.60542,-3.72062 0,-0.60745 0.0764,-2.80943 0.22934,-6.45411 0.1529,-3.64468 0.22935,-5.92261 0.22935,-6.75784 0,-3.56875 -0.84094,-6.53005 -2.44637,-8.80798 -1.98767,-2.73351 -4.73983,-4.02433 -8.25646,-4.02433 -1.60543,0 -3.21086,0.37965 -4.73984,1.13896 -1.52898,0.75931 -2.98151,1.82235 -4.35759,3.1891 3.5931,-7.97273 7.56845,-16.32512 11.92604,-25.05716 z"
     id="path361" />
  <path
     d="m 1015.5142,574.66532 -4.1283,3.1891 c 3.2109,3.03722 5.8866,6.45412 8.1036,10.25065 L 1024,584.84005 c -1.9877,-3.49282 -4.8163,-6.9097 -8.4858,-10.17473 z m -7.492,5.77074 -4.2047,3.1891 c 3.2873,3.11316 6.0395,6.53004 8.18,10.25065 l 4.4341,-3.11316 c -2.1406,-3.79654 -4.9692,-7.28935 -8.4094,-10.32659 z m 13.8372,20.12166 c -10.8557,0 -22.5524,0.4556 -35.24292,1.44269 l 0.45869,7.74494 c 12.53762,-0.9871 24.15783,-1.44269 34.78423,-1.44269 z M 999.23055,588.4088 c -5.27498,0.60744 -10.7793,1.13896 -16.51297,1.51862 l 1.83477,-10.85811 -8.33293,-1.06303 c -0.68804,4.25213 -1.37608,8.35239 -2.06412,12.37672 -5.19853,0.15186 -10.6264,0.30372 -16.13073,0.30372 l 0.38225,7.74494 c 4.96918,-0.15186 9.70901,-0.2278 14.2195,-0.37965 -0.91739,4.25212 -1.91122,8.42831 -2.90506,12.45265 -2.90506,11.38962 -6.26881,21.41247 -10.01481,29.91673 l 8.10359,2.58164 c 3.66955,-8.80797 7.0333,-19.05862 10.01481,-30.75197 1.14673,-4.7077 2.29347,-9.56728 3.36375,-14.65464 7.26265,-0.45558 13.76081,-0.9871 19.418,-1.74641 z m -10.9322,29.613 c -3.4402,4.32806 -5.12208,8.58018 -5.12208,12.68044 0,7.74494 7.6449,11.69334 23.08763,11.69334 6.3452,0 11.926,-0.45558 16.6658,-1.21489 l -0.2293,-7.74494 c -4.9692,0.91117 -10.4735,1.44269 -16.4365,1.44269 -4.587,0 -8.10364,-0.37965 -10.55,-1.13896 -2.82861,-0.83523 -4.20469,-2.12607 -4.20469,-3.94841 0,-2.12605 1.29963,-4.78364 3.89889,-8.04866 z"
     id="path363" />
</svg>
