<svg
  xmlns="http://www.w3.org/2000/svg"
  viewBox="0 0 320 600"
  fill="#222"
>
  <path
    d="M287.086 42.159h10.822v9.418h-10.822zm0 18.03h10.822v10.494h-10.822zm0 19.464H320v-8.97h-13.058V60.188h10.554v-8.61h-10.554v-9.42h10.196v-8.61h-10.196V23.86h12.521v-8.97h-11.359c-1.073-4.485-2.683-9.508-4.65-14.89l-8.945 2.512a126.986 126.986 0 0 1 4.83 12.378h-12.074c1.252-4.126 2.414-8.252 3.309-12.558L281.809.538c-2.326 12.558-6.35 24.13-11.896 34.714l3.13 9.867c1.61-2.512 3.22-5.203 4.74-7.894V83.51h9.303zm10.822-55.793v9.688h-10.822V23.86zM249.7 78.756h11.36v3.588h8.854V50.411h-29.158v33.1h8.944zm11.36-8.521h-11.36V58.933h11.36zm-23.255-59.112v8.61h34.613v-8.61h-11.895c-.984-3.23-2.236-6.728-3.846-10.585l-9.034 2.422a96.65 96.65 0 0 1 3.846 8.163zm3.756 13.455v8.162h27.548v-8.162zm0 12.468v8.252h27.548v-8.252z"
  />
  <path
    d="M1.523 24.97V35.25H13.5v57.208h77.038V81.67h-66.28V35.251h17.256v32.065h38.265V35.251h14.21V24.97H79.78V2.168H69.325V24.97H51.968V2.168H41.514V24.97H24.259V3.186h-10.76V24.97ZM51.968 35.25h17.357v21.682H51.968Z"
  />
  <path
    d="M11.977 119.008v42.754h16.85C22.33 167.666 12.788 172.552 0 176.42l5.684 9.263c8.73-3.562 16.24-7.634 22.533-12.215-.203 6.108-1.32 11.096-3.248 14.964-2.74 5.293-8.526 9.772-17.356 13.437l7.003 8.55c10.962-4.886 17.864-10.993 20.706-18.323 2.436-5.802 3.654-12.826 3.654-21.071h-7.612c3.45-2.85 6.496-6.006 9.135-9.263h14.616c2.233 3.257 5.176 6.311 8.627 9.365h-5.48v39.19h10.657V175.2c5.887 4.275 13.195 8.041 21.924 11.4l4.567-9.365c-12.687-3.868-22.33-9.06-28.826-15.472h17.458v-42.754zM73.791 152.6H52.983v-7.94h20.808zm-31.16 0H22.228v-7.94H42.63Zm-20.402-16.694v-7.533H42.63v7.533zm30.754-7.533h20.808v7.533H52.983Z"
  />
  <path d="M1.624 245.466v10.586h92.264v-10.586z" />
  <path
    d="m195.111 7.857-4.938 3.852c3.84 3.669 7.042 7.796 9.694 12.382l5.395-3.944c-2.378-4.219-5.761-8.346-10.15-12.29Zm-10.06 3.852-5.03 3.852c3.933 3.76 7.225 7.888 9.786 12.382l5.304-3.76c-2.56-4.586-5.944-8.805-10.06-12.474zM157.8 9.51l-10.06.274c.092 7.888.55 14.033 1.28 18.527.732 4.769 1.921 9.263 3.75 13.299-1.92.825-3.658 1.65-5.212 2.568-11.798 6.328-17.65 13.849-17.65 22.562 0 6.878 2.926 11.923 8.87 15.04 5.67 3.027 14.724 4.587 27.161 4.587 11.706 0 21.4-.55 29.173-1.56l-.914-9.813c-7.225 1.284-16.644 2.018-28.259 2.018-17.192 0-25.697-3.577-25.697-10.548 0-6.145 6.127-11.83 18.564-17.15 8.505-3.76 19.936-7.246 34.386-10.548l-3.567-8.896c-10.791 2.568-19.936 5.228-27.435 7.98-1.19-2.752-2.104-5.595-2.652-8.53-.915-4.586-1.555-11.19-1.738-19.81z"
  />
  <path
    d="m134.48 111.586-1.281 9.172c8.139 1.467 18.016 2.201 29.721 2.201 3.658 0 7.59-.275 11.706-.825-3.84 1.742-7.865 3.943-12.071 6.511l5.67 7.43c6.767-4.953 15.272-10.181 25.514-15.5l-3.566-7.796c-7.5.733-16.644 1.1-27.253 1.1-10.7 0-20.21-.825-28.44-2.293zm5.395 30.45c-7.5 7.704-11.249 14.216-11.249 19.627 0 11.556 11.797 17.334 35.392 17.334 11.157 0 21.857-.917 32.19-2.751l-1.554-9.264c-10.334 1.743-20.577 2.66-30.636 2.66-16.827 0-25.24-2.843-25.24-8.53 0-2.567 2.926-6.878 8.779-13.023z"
  />
  <path
    d="M184.886 205.3c-8.944 0-17.838.303-26.682.907l.854 5.19c7.739-.553 16.23-.805 25.526-.805zm-23.717 15.27c-2.312 3.98-3.467 7.256-3.467 9.776 0 3.225 1.457 5.543 4.472 7.004 2.814 1.36 7.135 2.066 13.014 2.066 2.613 0 6.482-.201 11.607-.604l-.301-5.392c-4.07.504-7.839.756-11.306.756-3.718 0-6.583-.303-8.492-.908-2.261-.705-3.367-1.763-3.367-3.225 0-1.713.955-4.031 2.915-6.954zm-11.507-20.662c-2.06 7.71-3.065 15.27-3.065 22.677 0 6.954 1.156 13.254 3.467 18.948l5.125-1.865c-2.06-4.989-3.065-10.683-3.065-17.083 0-7.105.955-14.261 2.864-21.417z"
  />
  <path
    d="m178.655 260.002-4.422 3.326c5.125 5.997 7.99 14.412 8.593 25.247l5.577-.252c-.603-11.994-3.869-21.468-9.748-28.321zm-33.164 0c-.753 4.939-1.105 9.625-1.105 14.16 0 6.703 1.055 11.994 3.216 15.824 2.16 3.83 5.175 5.745 9.044 5.745 2.412 0 4.422-1.109 6.03-3.276 1.508-2.116 2.814-5.442 3.87-9.978l-5.478-1.36c-.402 2.116-.854 3.88-1.356 5.291-.905 2.52-2.01 3.83-3.216 3.83-1.608 0-3.015-1.26-4.221-3.679-1.508-2.973-2.261-7.105-2.261-12.397 0-4.585.351-9.07 1.055-13.454z"
  />
  <path
    d="M185.338 324.916c-7.135 0-14.823.303-23.164.958l.301 5.14c8.24-.655 15.879-.958 22.863-.958zm-14.873-8.063c-3.468.404-7.085.756-10.854 1.008l1.206-7.206-5.477-.705a937.64 937.64 0 0 1-1.357 8.214c-3.417.1-6.984.201-10.602.201l.251 5.14c3.266-.1 6.382-.15 9.346-.252a288.979 288.979 0 0 1-1.91 8.265c-1.908 7.559-4.12 14.21-6.582 19.855l5.327 1.713c2.412-5.846 4.623-12.649 6.582-20.41.754-3.124 1.508-6.349 2.211-9.725 4.774-.302 9.045-.655 12.763-1.159zm-7.186 19.654c-2.261 2.872-3.366 5.694-3.366 8.415 0 5.14 5.024 7.76 15.174 7.76 4.17 0 7.839-.301 10.954-.805l-.15-5.14c-3.266.604-6.884.957-10.804.957-3.014 0-5.326-.252-6.934-.756-1.859-.554-2.763-1.41-2.763-2.62 0-1.411.854-3.175 2.562-5.342z"
  />
  <path
    d="m297.742 99.093-2.713 2.116a30.317 30.317 0 0 1 5.326 6.804l2.965-2.167c-1.307-2.318-3.166-4.586-5.578-6.753zm-4.924 3.83-2.764 2.116c2.161 2.066 3.97 4.334 5.377 6.803l2.914-2.066a26.513 26.513 0 0 0-5.527-6.853zm9.095 13.354c-7.135 0-14.823.302-23.164.957l.301 5.14c8.24-.655 15.878-.957 22.863-.957zm-14.874-8.063c-3.467.403-7.084.756-10.853 1.008l1.206-7.206-5.477-.706a937.702 937.702 0 0 1-1.357 8.214c-3.417.101-6.984.202-10.602.202l.251 5.14c3.266-.1 6.382-.151 9.346-.252a288.945 288.945 0 0 1-1.91 8.264c-1.909 7.56-4.12 14.211-6.582 19.855l5.327 1.714c2.412-5.846 4.622-12.649 6.582-20.41.754-3.124 1.508-6.349 2.211-9.725 4.774-.303 9.045-.655 12.763-1.16zm-7.185 19.653c-2.261 2.873-3.367 5.695-3.367 8.416 0 5.14 5.025 7.76 15.175 7.76 4.17 0 7.839-.302 10.954-.806l-.15-5.14c-3.267.605-6.884.958-10.804.958-3.015 0-5.326-.252-6.934-.756-1.86-.555-2.764-1.411-2.764-2.62 0-1.412.855-3.175 2.563-5.342z"
  />
  <path
    d="M173 374.947c-4.724 0-11.558 1.209-20.502 3.678l1.457 4.838c8.844-2.318 15.225-3.477 19.044-3.477 2.563 0 4.573.605 6.08 1.814 1.457 1.21 2.211 2.721 2.211 4.586 0 2.923-1.256 5.04-3.769 6.45-2.864 1.562-7.788 2.47-14.722 2.671l1.306 4.888c7.638-.302 13.215-1.41 16.833-3.427 3.92-2.217 5.93-5.795 5.93-10.633 0-3.477-1.307-6.248-3.92-8.365-2.562-2.016-5.879-3.023-9.949-3.023z"
  />
  <path
    d="M289.574 161.883c-4.723 0-11.557 1.21-20.501 3.678l1.457 4.838c8.844-2.318 15.225-3.477 19.044-3.477 2.563 0 4.573.605 6.08 1.814 1.457 1.21 2.21 2.721 2.21 4.586 0 2.923-1.255 5.04-3.768 6.45-2.864 1.562-7.788 2.47-14.722 2.671l1.306 4.888c7.638-.302 13.215-1.41 16.833-3.427 3.92-2.217 5.93-5.795 5.93-10.632 0-3.478-1.307-6.25-3.92-8.366-2.563-2.015-5.879-3.023-9.949-3.023z"
  />
  <path
    d="M185.59 419.502c-12.563.1-26.431.958-41.606 2.67l.703 5.09c7.035-.906 14.623-1.662 22.662-2.317-3.216 2.116-5.678 4.384-7.487 6.853-2.412 3.124-3.567 6.602-3.567 10.381 0 4.636 1.809 8.264 5.477 10.885 4.02 2.822 9.999 4.334 17.988 4.434l.955-4.938c-6.482-.202-11.356-1.36-14.572-3.376-2.914-1.865-4.321-4.334-4.321-7.358 0-2.872.955-5.694 2.914-8.516a22.97 22.97 0 0 1 6.08-6.199c2.211-1.612 4.02-2.418 5.377-2.418l9.497-.353z"
  />
  <path
    d="M302.164 204.438c-12.562.1-26.43.957-41.605 2.67l.703 5.09c7.035-.907 14.622-1.663 22.662-2.318-3.216 2.117-5.678 4.384-7.487 6.854-2.412 3.124-3.567 6.601-3.567 10.38 0 4.637 1.808 8.265 5.477 10.885 4.02 2.822 9.999 4.334 17.988 4.435l.955-4.939c-6.482-.201-11.356-1.36-14.572-3.376-2.914-1.864-4.321-4.334-4.321-7.357 0-2.873.955-5.695 2.914-8.517a22.97 22.97 0 0 1 6.08-6.198c2.211-1.613 4.02-2.419 5.377-2.419l9.497-.353z"
  />
  <path
    d="m179.029 482.08-3.065 2.822a53.572 53.572 0 0 1 5.828 5.342 50.95 50.95 0 0 1 4.422 5.442l3.518-2.922c-1.407-1.966-2.965-3.78-4.573-5.443-1.91-1.965-3.92-3.729-6.13-5.24z"
  />
  <path
    d="m295.966 265.894-3.065 2.822a53.572 53.572 0 0 1 5.83 5.342 50.95 50.95 0 0 1 4.42 5.442l3.518-2.923c-1.407-1.965-2.964-3.78-4.572-5.442-1.91-1.965-3.92-3.73-6.13-5.241z"
  />
  <path
    d="M65.897 294.87a391 391 0 0 0-26.682.907l.855 5.19c7.738-.554 16.23-.806 25.525-.806zM42.18 310.14c-2.311 3.98-3.467 7.256-3.467 9.775 0 3.225 1.457 5.544 4.472 7.005 2.814 1.36 7.135 2.066 13.014 2.066 2.613 0 6.482-.201 11.607-.605l-.301-5.392c-4.07.504-7.839.756-11.306.756-3.718 0-6.582-.302-8.492-.907-2.26-.705-3.366-1.764-3.366-3.225 0-1.713.954-4.031 2.914-6.954zm-11.507-20.662c-2.06 7.71-3.065 15.269-3.065 22.677 0 6.954 1.156 13.253 3.467 18.948l5.126-1.865c-2.06-4.989-3.066-10.683-3.066-17.083 0-7.106.955-14.261 2.865-21.417z"
  />
  <path
    d="m53.536 345.717-2.11 4.737a34.673 34.673 0 0 1 7.034 3.074c2.261 1.31 4.422 2.872 6.532 4.686l3.468-3.83a43.927 43.927 0 0 0-7.035-5.14c-2.512-1.461-5.176-2.62-7.889-3.527zm-4.723 2.62c-2.613.202-5.427.403-8.341.554a124.981 124.981 0 0 0 1.507-6.55l-5.276-1.21c-.603 2.721-1.206 5.392-1.86 7.962-3.115.05-6.33.1-9.647.1v4.94c2.764 0 5.477-.051 8.19-.102a244.99 244.99 0 0 1-1.658 4.687c-2.31 6.098-5.024 11.389-8.24 15.874l4.572 2.923c3.317-5.04 6.18-10.583 8.593-16.63a145.137 145.137 0 0 0 2.412-7.055c3.416-.151 6.783-.353 10.1-.605zm8.994 8.365-5.376.252c.2 4.838.351 8.718.452 11.691a22.077 22.077 0 0 0-5.628-.705c-2.914 0-5.326.655-7.236 1.965-2.311 1.512-3.417 3.629-3.417 6.4 0 2.822 1.206 4.939 3.669 6.45 2.01 1.21 4.522 1.815 7.537 1.815 3.316 0 5.828-.807 7.637-2.369 1.558-1.41 2.513-3.477 2.865-6.148 2.21 1.31 4.773 3.125 7.687 5.543l3.367-3.98c-3.819-3.125-7.487-5.493-11.004-7.106-.1-3.074-.302-7.66-.553-13.808zm-4.824 16.983c0 1.965-.452 3.477-1.256 4.485-.904 1.008-2.21 1.562-3.92 1.562-1.456 0-2.713-.252-3.718-.706-1.407-.604-2.06-1.511-2.06-2.72 0-1.009.452-1.815 1.457-2.52.955-.706 2.211-1.008 3.769-1.008 1.86 0 3.769.302 5.728.907z"
  />
  <path
    d="M53.084 403.417c-3.82 0-8.492 2.318-14.02 6.954v-.454l2.212-4.434-2.06-1.764.2-7.61-5.276-.05-.2 7.862-9.045.554.251 4.938 8.693-.554-.201 6.5c-3.367 3.327-6.985 7.409-10.854 12.196l4.271 3.326a175.978 175.978 0 0 1 6.382-7.509c-.1 5.241-.15 10.633-.15 16.076h5.275c0-6.047.1-13.354.302-21.921l.753-.756c5.678-5.594 10.15-8.365 13.417-8.365 2.26 0 3.416 1.007 3.416 3.074 0 1.41-.301 4.535-.904 9.272s-.905 7.66-.905 8.768c0 5.14 2.362 7.71 7.136 7.71 2.06 0 3.869-.604 5.376-1.763 1.005-.907 2.312-2.47 3.92-4.737l-4.372-3.225c-1.709 3.073-3.316 4.636-4.924 4.636-1.106 0-1.659-.907-1.659-2.62 0-1.11.252-4.032.855-8.77.552-4.736.854-7.86.854-9.271 0-2.52-.754-4.536-2.261-5.947-1.508-1.41-3.668-2.116-6.482-2.116z"
  />
  <path
    d="m56.953 452.147-26.079.806.302 4.989 19.546-1.058-23.767 19.653 3.316 3.527c3.065-2.72 6.18-4.787 9.346-6.248 3.719-1.714 7.437-2.57 11.256-2.57 2.814 0 5.025.504 6.532 1.511 1.709 1.16 2.563 2.974 2.563 5.393 0 2.922-1.709 5.24-5.025 6.954-.704-2.42-1.759-4.334-3.166-5.745-2.06-2.167-4.874-3.225-8.441-3.225-2.814 0-5.025.806-6.683 2.419-1.558 1.461-2.312 3.225-2.312 5.341 0 2.369 1.056 4.233 3.216 5.644 2.11 1.361 4.975 2.067 8.693 2.067 5.628 0 10.2-1.21 13.768-3.629 3.517-2.469 5.326-5.745 5.326-9.826 0-3.528-1.206-6.35-3.618-8.466-2.412-2.117-5.828-3.175-10.25-3.175-2.563 0-5.125.504-7.738 1.612a1943.873 1943.873 0 0 1 16.029-12.447zm-6.784 34.519c-1.256.202-2.562.353-3.919.353-2.512 0-4.321-.403-5.477-1.21-.804-.604-1.206-1.26-1.206-1.965 0-.857.302-1.562 1.005-2.117.704-.604 1.608-.907 2.764-.907 3.467 0 5.728 1.915 6.833 5.846z"
  />
  <path
    d="M39.97 505.261c-5.026 11.338-10.452 24.592-16.23 39.81l5.476 1.412 4.774-12.498c.753-2.016 2.06-3.83 3.869-5.493 1.809-1.713 3.417-2.52 4.823-2.52 1.558 0 2.362 1.16 2.362 3.478 0 .554-.05 2.066-.15 4.485-.101 2.419-.151 3.88-.151 4.283 0 2.52.854 4.586 2.562 6.198 1.709 1.563 3.97 2.369 6.784 2.369 3.97 0 7.034-1.713 9.195-5.14 1.91-2.973 3.568-8.113 4.975-15.37l-5.427-1.109c-1.106 6.35-2.462 10.835-3.97 13.405-1.256 2.016-2.864 3.074-4.773 3.074-1.206 0-2.16-.353-2.864-.958-.704-.604-1.056-1.461-1.056-2.469 0-.403.05-1.864.151-4.283.1-2.42.15-3.931.15-4.485 0-2.369-.552-4.334-1.607-5.846-1.306-1.814-3.115-2.67-5.427-2.67-1.055 0-2.11.251-3.115.755-1.005.504-1.96 1.21-2.864 2.117a469.813 469.813 0 0 1 7.838-16.63z"
  />
  <path
    d="m62.179 554.646-2.714 2.117a30.317 30.317 0 0 1 5.327 6.803l2.964-2.167c-1.306-2.318-3.165-4.586-5.577-6.753zm-4.925 3.83-2.763 2.117c2.16 2.066 3.97 4.333 5.376 6.803l2.915-2.066a26.514 26.514 0 0 0-5.528-6.854zm9.095 13.354c-7.135 0-14.823.303-23.164.958l.301 5.14c8.241-.655 15.879-.958 22.863-.958zm-14.873-8.063a221.95 221.95 0 0 1-10.854 1.008l1.206-7.206-5.477-.705a937.702 937.702 0 0 1-1.356 8.214c-3.417.1-6.985.201-10.603.201l.252 5.14c3.266-.1 6.381-.15 9.346-.252a288.953 288.953 0 0 1-1.91 8.265c-1.91 7.559-4.12 14.21-6.582 19.855L30.824 600c2.412-5.846 4.623-12.649 6.582-20.41.754-3.124 1.508-6.349 2.211-9.725 4.774-.302 9.045-.655 12.763-1.16zm-7.186 19.654c-2.26 2.872-3.366 5.694-3.366 8.415 0 5.14 5.025 7.76 15.175 7.76 4.17 0 7.838-.302 10.954-.805l-.151-5.14c-3.266.604-6.884.957-10.803.957-3.015 0-5.327-.252-6.935-.756-1.859-.554-2.763-1.411-2.763-2.62 0-1.411.854-3.175 2.562-5.342z"
  />
</svg>