<?xml version="1.0" encoding="UTF-8" standalone="no"?>
<svg
   width="215.99995"
   height="131.99998"
   viewBox="0 0 215.99996 131.99999"
   version="1.1"
   id="svg533"
   sodipodi:docname="message-code.svg"
   inkscape:version="1.2.2 (b0a84865, 2022-12-01)"
   xmlns:inkscape="http://www.inkscape.org/namespaces/inkscape"
   xmlns:sodipodi="http://sodipodi.sourceforge.net/DTD/sodipodi-0.dtd"
   xmlns="http://www.w3.org/2000/svg"
   xmlns:svg="http://www.w3.org/2000/svg">
  <defs
     id="defs537" />
  <sodipodi:namedview
     id="namedview535"
     pagecolor="#000000"
     bordercolor="#000000"
     borderopacity="0.25"
     inkscape:showpageshadow="2"
     inkscape:pageopacity="0"
     inkscape:pagecheckerboard="0"
     inkscape:deskcolor="#d1d1d1"
     showgrid="false"
     inkscape:zoom="1.854395"
     inkscape:cx="70.103725"
     inkscape:cy="73.878541"
     inkscape:window-width="1920"
     inkscape:window-height="1052"
     inkscape:window-x="1728"
     inkscape:window-y="28"
     inkscape:window-maximized="0"
     inkscape:current-layer="svg533" />
  <path
     d="M 10.325076,23.811269 H 7.4607 V 7.1700592 q 0,-1.4340121 0.033307,-2.3010891 0.033307,-0.867077 0.09992,-1.8008523 Q 7.0610196,3.6017037 6.6280326,3.968544 6.1950455,4.3353842 5.5289116,4.9023192 L 2.9976027,6.9699645 1.4654946,5.0023666 7.8936871,-8.6267041e-7 h 2.4313889 z"
     id="path856"
     style="fill:#8d8d8d" />
  <path
     d="M 15.82068,75.350878 H 0.09992009 V 72.916393 L 6.3282723,66.61341 q 1.7985616,-1.800853 3.0309094,-3.201516 1.2323473,-1.400663 1.8651743,-2.734627 0.632828,-1.367313 0.632828,-2.968072 0,-1.967597 -1.165734,-2.968071 -1.1657348,-1.033823 -3.0309098,-1.033823 -1.7319482,0 -3.0642161,0.600285 -1.2989612,0.600284 -2.6645357,1.667456 L 0.36637365,54.007443 q 1.39888125,-1.167218 3.19744285,-1.967598 1.8318683,-0.833727 4.0967237,-0.833727 3.3306698,0 5.2624578,1.700805 1.931788,1.667456 1.931788,4.635527 0,1.86755 -0.766053,3.501657 -0.766054,1.634107 -2.131629,3.234865 -1.365575,1.567408 -3.1974428,3.36826 l -4.9626978,4.902321 v 0.133396 H 15.82068 Z"
     id="path859"
     style="fill:#8d8d8d" />
  <path
     d="m 14.9214,108.64852 q 0,2.40114 -1.332268,3.83515 -1.332268,1.40066 -3.5971231,1.86755 v 0.13339 q 2.8643751,0.3335 4.2632571,1.80086 1.398881,1.46736 1.398881,3.83515 0,2.06765 -0.965894,3.70175 -0.965894,1.60075 -2.997602,2.50119 -1.9984023,0.90042 -5.1625385,0.90042 -1.865175,0 -3.4638964,-0.30014 Q 1.4654946,126.65705 0,125.92336 v -2.73463 q 1.4988013,0.73369 3.2307496,1.16722 1.7319482,0.4002 3.3306696,0.4002 3.1974429,0 4.5963238,-1.23393 1.432188,-1.26726 1.432188,-3.4683 0,-2.23439 -1.765255,-3.20152 -1.7319479,-1.00047 -4.896084,-1.00047 H 3.6304299 v -2.50119 h 2.3314688 q 2.9309893,0 4.4297903,-1.23391 1.532108,-1.23392 1.532108,-3.26821 0,-1.73415 -1.165734,-2.66793 -1.1657344,-0.96712 -3.1641362,-0.96712 -1.9317884,0 -3.297363,0.56693 -1.3655745,0.56693 -2.6978424,1.43401 l -1.46549462,-2.00094 q 1.26565452,-1.00048 3.13082952,-1.73416 1.8984817,-0.73368 4.2965638,-0.73368 3.7303499,0 5.5289119,1.66746 1.831868,1.66745 1.831868,4.23533 z"
     id="path862"
     style="fill:#8d8d8d" />
  <path
     d="m 51.121807,28.920763 q -2.971364,-0.03234 -4.683129,-1.293543 -1.711764,-1.261204 -1.711764,-3.84829 v -4.75377 q 0,-1.649268 -1.033518,-2.328378 -1.00122,-0.711449 -2.906769,-0.711449 v -2.360716 q 1.905549,-0.03234 2.906769,-0.711449 1.033518,-0.67911 1.033518,-2.296038 V 5.8310209 q 0,-2.5870859 1.776359,-3.8482903 1.776359,-1.26120445 4.618534,-1.26120445 V 3.0499035 q -1.679467,0.032339 -2.64839,0.7437872 -0.936626,0.7114486 -0.936626,2.2960389 v 4.6567544 q 0,3.330873 -3.52042,3.945306 v 0.194031 q 3.52042,0.614433 3.52042,3.945307 v 4.753771 q 0,1.58459 0.936626,2.2637 0.936626,0.711448 2.64839,0.743787 z"
     id="path865"
     style="fill:#fdfdfd" />
  <path
     d="m 61.618476,56.68344 q 2.939067,0 4.392451,1.519914 1.453385,1.487574 1.453385,4.850786 V 74.340302 H 64.654435 V 63.183494 q 0,-4.106999 -3.520421,-4.106999 -2.5192,0 -3.617313,1.455236 -1.065815,1.455236 -1.065815,4.236353 v 9.572218 H 53.641007 V 63.183494 q 0,-4.106999 -3.552718,-4.106999 -2.616093,0 -3.617313,1.616929 -1.001221,1.616929 -1.001221,4.656754 v 8.990124 H 42.627581 V 57.006825 h 2.293118 l 0.419867,2.360717 h 0.161487 q 0.807436,-1.358221 2.163928,-2.004992 1.38879,-0.67911 2.939067,-0.67911 4.069478,0 5.296781,2.910472 h 0.161487 q 0.872031,-1.487575 2.357713,-2.199024 1.51798,-0.711448 3.197447,-0.711448 z"
     id="path871"
     style="fill:#3e9f78" />
  <path
     d="m 82.740982,56.68344 q 2.228523,0 3.811098,0.970157 1.614872,0.970158 2.454605,2.74878 0.872031,1.746283 0.872031,4.106999 v 1.713944 h -11.85316 q 0.0646,2.94281 1.485682,4.495062 1.453385,1.519913 4.03718,1.519913 1.647169,0 2.906769,-0.291048 1.291898,-0.323385 2.64839,-0.90548 v 2.490071 q -1.324195,0.582094 -2.616092,0.840803 -1.291898,0.291047 -3.068257,0.291047 -2.454605,0 -4.360154,-1.002496 -1.873252,-1.002496 -2.939067,-2.975149 -1.033518,-2.004991 -1.033518,-4.883125 0,-2.845794 0.936626,-4.883124 0.968923,-2.03733 2.680687,-3.136843 1.744062,-1.099511 4.03718,-1.099511 z m -0.0323,2.328378 q -2.034738,0 -3.229743,1.325882 -1.162708,1.293542 -1.38879,3.62192 h 8.8172 q -0.0323,-2.199023 -1.033518,-3.557243 -1.00122,-1.390559 -3.165149,-1.390559 z"
     id="path873"
     style="fill:#3e9f78" />
  <path
     d="m 108.77269,69.554193 q 0,2.522409 -1.87324,3.815952 -1.87326,1.293543 -5.03841,1.293543 -1.80865,0 -3.132848,-0.291047 -1.291898,-0.291048 -2.293119,-0.808465 V 70.97709 q 1.033518,0.517417 2.486904,0.970157 1.485683,0.420402 3.003663,0.420402 2.16393,0 3.13285,-0.67911 0.96892,-0.711449 0.96892,-1.875637 0,-0.646772 -0.35527,-1.164189 -0.35527,-0.517417 -1.2919,-1.034834 -0.90432,-0.517418 -2.61608,-1.164189 -1.67948,-0.646772 -2.874481,-1.293543 -1.195006,-0.646771 -1.840955,-1.552252 -0.645948,-0.90548 -0.645948,-2.328377 0,-2.199023 1.776359,-3.395551 1.808661,-1.196527 4.715435,-1.196527 1.58257,0 2.93905,0.323385 1.3888,0.291048 2.5838,0.840803 l -0.96892,2.263702 q -1.09811,-0.452741 -2.29311,-0.776126 -1.19501,-0.323386 -2.45461,-0.323386 -1.74406,0 -2.68069,0.582094 -0.904329,0.549756 -0.904329,1.519913 0,0.711449 0.419867,1.228866 0.419869,0.485079 1.388792,0.970157 1.00122,0.45274 2.64838,1.099512 1.64718,0.614433 2.80989,1.261204 1.1627,0.646772 1.77635,1.58459 0.61365,0.90548 0.61365,2.296039 z"
     id="path875"
     style="fill:#3e9f78" />
  <path
     d="m 127.47285,69.554193 q 0,2.522409 -1.87325,3.815952 -1.87326,1.293543 -5.0384,1.293543 -1.80866,0 -3.13286,-0.291047 -1.29189,-0.291048 -2.29312,-0.808465 V 70.97709 q 1.03353,0.517417 2.48691,0.970157 1.48568,0.420402 3.00366,0.420402 2.16393,0 3.13285,-0.67911 0.96893,-0.711449 0.96893,-1.875637 0,-0.646772 -0.35528,-1.164189 -0.35527,-0.517417 -1.29189,-1.034834 -0.90433,-0.517418 -2.6161,-1.164189 -1.67946,-0.646772 -2.87447,-1.293543 -1.195,-0.646771 -1.84095,-1.552252 -0.64595,-0.90548 -0.64595,-2.328377 0,-2.199023 1.77636,-3.395551 1.80865,-1.196527 4.71542,-1.196527 1.58258,0 2.93907,0.323385 1.3888,0.291048 2.5838,0.840803 l -0.96893,2.263702 q -1.09811,-0.452741 -2.29312,-0.776126 -1.195,-0.323386 -2.4546,-0.323386 -1.74407,0 -2.68069,0.582094 -0.90432,0.549756 -0.90432,1.519913 0,0.711449 0.41986,1.228866 0.41987,0.485079 1.3888,0.970157 1.00121,0.45274 2.64838,1.099512 1.64717,0.614433 2.80988,1.261204 1.16271,0.646772 1.77636,1.58459 0.61365,0.90548 0.61365,2.296039 z"
     id="path877"
     style="fill:#3e9f78" />
  <path
     d="m 141.45759,56.715778 q 3.16514,0 4.68312,1.390559 1.51799,1.39056 1.51799,4.430386 v 11.803579 h -2.06705 L 145.0426,71.88257 h -0.12918 q -1.13041,1.422898 -2.39002,2.102008 -1.2273,0.67911 -3.42352,0.67911 -2.35772,0 -3.908,-1.228866 -1.55028,-1.261205 -1.55028,-3.912968 0,-2.587085 2.03475,-3.977644 2.03473,-1.422897 6.2657,-1.552252 l 2.93907,-0.09701 v -1.034835 q 0,-2.166684 -0.93663,-3.007487 -0.93663,-0.840803 -2.64839,-0.840803 -1.3565,0 -2.5838,0.420401 -1.2273,0.388063 -2.29312,0.905481 l -0.87202,-2.134346 q 1.13041,-0.614434 2.68068,-1.034836 1.55028,-0.45274 3.22975,-0.45274 z m 0.83973,9.248833 q -3.22974,0.129355 -4.48934,1.034835 -1.22731,0.90548 -1.22731,2.554747 0,1.455236 0.87204,2.134346 0.90432,0.67911 2.29312,0.67911 2.19622,0 3.6496,-1.196527 1.45339,-1.228866 1.45339,-3.751275 v -1.552251 z"
     id="path879"
     style="fill:#3e9f78" />
  <path
     d="m 162.38629,56.68344 q 1.71177,0 3.06826,0.646771 1.3888,0.646772 2.35772,1.972654 h 0.16149 l 0.38756,-2.29604 h 2.26082 v 17.624524 q 0,3.718936 -1.90555,5.594573 -1.87324,1.875638 -5.84584,1.875638 -3.81109,0 -6.2334,-1.099512 v -2.619424 q 2.5515,1.35822 6.39489,1.35822 2.22852,0 3.48813,-1.325882 1.2919,-1.293543 1.2919,-3.557243 v -0.67911 q 0,-0.388063 0.0323,-1.099511 0.0323,-0.743788 0.0646,-1.034835 h -0.12919 q -1.74406,2.619425 -5.36138,2.619425 -3.35893,0 -5.26448,-2.360716 -1.87325,-2.360716 -1.87325,-6.597069 0,-4.139338 1.87325,-6.564731 1.90555,-2.457732 5.23218,-2.457732 z m 0.38758,2.393055 q -2.16394,0 -3.35894,1.746283 -1.19501,1.713945 -1.19501,4.915463 0,3.201519 1.16271,4.915464 1.195,1.681605 3.45582,1.681605 2.6161,0 3.81111,-1.390558 1.195,-1.422898 1.195,-4.559739 v -0.67911 q 0,-3.557243 -1.2273,-5.077156 -1.2273,-1.552252 -3.84339,-1.552252 z"
     id="path881"
     style="fill:#3e9f78" />
  <path
     d="m 186.02801,56.68344 q 2.22852,0 3.8111,0.970157 1.61487,0.970158 2.4546,2.74878 0.87204,1.746283 0.87204,4.106999 v 1.713944 h -11.85317 q 0.0646,2.94281 1.48569,4.495062 1.45338,1.519913 4.03718,1.519913 1.64717,0 2.90677,-0.291048 1.29189,-0.323385 2.64839,-0.90548 v 2.490071 q -1.3242,0.582094 -2.61609,0.840803 -1.2919,0.291047 -3.06826,0.291047 -2.45461,0 -4.36015,-1.002496 -1.87326,-1.002496 -2.93907,-2.975149 -1.03353,-2.004991 -1.03353,-4.883125 0,-2.845794 0.93664,-4.883124 0.96892,-2.03733 2.68068,-3.136843 1.74406,-1.099511 4.03718,-1.099511 z m -0.0323,2.328378 q -2.03473,0 -3.22974,1.325882 -1.16271,1.293542 -1.38879,3.62192 h 8.8172 q -0.0323,-2.199023 -1.03351,-3.557243 -1.00123,-1.390559 -3.16516,-1.390559 z"
     id="path883"
     style="fill:#3e9f78" />
  <path
     d="m 211.99507,58.753109 q 0,-1.228866 0.58135,-1.713945 0.58136,-0.485079 1.3888,-0.485079 0.83973,0 1.42108,0.485079 0.61365,0.485079 0.61365,1.713945 0,1.164189 -0.61365,1.681606 -0.58135,0.517417 -1.42108,0.517417 -0.80744,0 -1.3888,-0.517417 -0.58135,-0.517417 -0.58135,-1.681606 z m 0,13.84091 q 0,-1.196527 0.58135,-1.681606 0.58136,-0.485078 1.3888,-0.485078 0.83973,0 1.42108,0.485078 0.61365,0.485079 0.61365,1.681606 0,1.164189 -0.61365,1.681606 -0.58135,0.517417 -1.42108,0.517417 -0.80744,0 -1.3888,-0.517417 -0.58135,-0.517417 -0.58135,-1.681606 z"
     id="path885"
     style="fill:#fdfdfd" />
  <path
     d="m 40.915816,129.67161 q 1.679467,-0.0646 2.616093,-0.77613 0.968923,-0.67911 0.968923,-2.2637 v -4.68909 q 0,-3.33088 3.520421,-3.94531 v -0.19403 q -3.520421,-0.61443 -3.520421,-3.9453 v -4.72144 q 0,-1.58459 -0.936626,-2.2637 -0.936625,-0.71145 -2.64839,-0.74379 v -2.32837 q 2.971365,0.0323 4.683129,1.29354 1.711764,1.2612 1.711764,3.84829 v 4.72143 q 0,1.64927 1.001221,2.36071 1.033518,0.67912 2.939067,0.67912 v 2.36071 q -1.905549,0.0323 -2.939067,0.71145 -1.001221,0.67911 -1.001221,2.29604 v 4.81845 q 0,2.55474 -1.776359,3.81595 -1.776359,1.29355 -4.618534,1.29355 z"
     id="path868"
     style="fill:#fdfdfd" />
  <path
     id="Line_299"
     d="M 57.979977,129.04709 H 90.427803"
     fill="#fdfdfd" />
</svg>
