<?xml version="1.0" encoding="UTF-8" standalone="no"?>
<svg
   width="479.99997"
   height="480"
   viewBox="0 0 479.99997 479.99999"
   version="1.1"
   id="svg118"
   sodipodi:docname="three-element.svg"
   inkscape:version="1.2.2 (b0a84865, 2022-12-01)"
   xmlns:inkscape="http://www.inkscape.org/namespaces/inkscape"
   xmlns:sodipodi="http://sodipodi.sourceforge.net/DTD/sodipodi-0.dtd"
   xmlns="http://www.w3.org/2000/svg"
   xmlns:svg="http://www.w3.org/2000/svg">
  <defs
     id="defs122" />
  <sodipodi:namedview
     id="namedview120"
     pagecolor="#000000"
     bordercolor="#000000"
     borderopacity="0.24"
     inkscape:showpageshadow="2"
     inkscape:pageopacity="0"
     inkscape:pagecheckerboard="0"
     inkscape:deskcolor="#d1d1d1"
     showgrid="false"
     showguides="true"
     inkscape:zoom="0.96775944"
     inkscape:cx="61.998879"
     inkscape:cy="253.16209"
     inkscape:window-width="1920"
     inkscape:window-height="1080"
     inkscape:window-x="1728"
     inkscape:window-y="0"
     inkscape:window-maximized="0"
     inkscape:current-layer="svg118" />
  <path
     id="Ellipse_9"
     style="opacity:0.6;fill:none;stroke:#3e9f78;stroke-width:3;stroke-linecap:round;stroke-dasharray:0, 6"
     d="M 440.50783,266.1037 A 200.58499,199.53548 0 0 1 239.92283,465.63917 200.58499,199.53548 0 0 1 39.337838,266.1037 200.58499,199.53548 0 0 1 239.92283,66.568224 200.58499,199.53548 0 0 1 440.50783,266.1037 Z" />
  <path
     id="arrow-left"
     d="m 67.129837,190.20582 -4.438279,1.18598 -3.578592,-13.2939 -13.333753,3.56221 -1.189233,-4.4261 17.776602,-4.75609 z"
     fill="#3e9f78"
     fill-rule="evenodd"
     style="stroke-width:1" />
  <path
     id="arrow-left-2"
     data-name="arrow-left"
     d="m 428.91015,168.79826 -4.43828,-1.18598 -3.57895,13.29521 -13.33777,-3.56099 -1.18672,4.43045 17.7781,4.75052 z"
     fill="#3e9f78"
     fill-rule="evenodd"
     style="stroke-width:1" />
  <path
     id="arrow-left-3"
     data-name="arrow-left"
     d="m 244.80248,480 3.24905,-3.24012 -9.75628,-9.73858 9.76135,-9.73857 -3.25412,-3.24011 -13.01446,12.97868 z"
     fill="#3e9f78"
     fill-rule="evenodd"
     style="stroke-width:1" />
  <path
     id="path605"
     style="font-weight:600;font-size:63px;font-family:PingFangSC-Semibold, 'PingFang SC';letter-spacing:0.1em;fill:#fdfdfd;stroke-width:1"
     d="m 201.50476,200.81647 v 8.037 h -20.7904 v 6.50634 h 20.7904 v 9.24928 h -24.62763 v 6.50832 h 19.25354 c -4.47759,7.78234 -11.38503,14.16072 -20.59607,19.2639 l 3.83722,6.3145 c 10.17052,-6.69793 17.52595,-15.24447 22.0675,-25.5784 h 0.0654 v 28.38463 h 6.78008 v -28.38463 h 0.12692 c 4.15776,9.3133 11.25894,17.86036 21.36549,25.51512 l 4.73357,-5.99612 c -9.6588,-5.74107 -16.63213,-12.24698 -20.85387,-19.519 h 19.25354 v -6.50832 H 208.2848 v -9.24928 h 21.23661 v -6.50634 H 208.2848 v -8.037 z m 70.36099,0 v 6.63487 h -22.25987 v 6.44108 h 22.25987 v 13.97182 h -10.23458 l 4.54121,-2.29798 c -1.855,-3.82739 -3.77242,-7.33587 -5.69139,-10.46156 l -5.88572,2.8082 c 1.98293,2.87054 3.83688,6.18774 5.62793,9.95134 h -13.112 v 6.44108 h 19.50934 c -3.83792,6.25139 -11.06552,11.99275 -21.55587,17.15971 l 3.71031,5.99611 c 11.25794,-6.31518 18.933,-13.84262 23.09077,-22.64561 v 24.75178 h 6.78007 V 234.8808 c 4.41363,8.22888 11.83399,15.75535 22.19641,22.51707 l 4.60467,-5.741 c -9.97863,-5.10318 -17.20521,-10.90879 -21.68279,-17.35155 h 19.50934 v -6.44108 h -12.92161 c 2.04689,-3.25328 3.90136,-6.88974 5.56446,-10.9085 l -6.52426,-2.296 c -1.59915,4.65665 -3.4531,9.05816 -5.62793,13.2045 h -5.11829 v -13.97182 h 22.83693 v -6.44108 h -22.83693 v -6.63487 z" />
  <path
     id="path610"
     style="font-weight:600;font-size:16px;font-family:PingFangSC-Semibold, 'PingFang SC';letter-spacing:0.1em;fill:#fdfdfd;stroke-width:1"
     d="m 192.36484,284.6968 -0.87851,0.6803 c 0.68231,0.64801 1.25218,1.3772 1.72329,2.18723 l 0.95782,-0.6981 c -0.42238,-0.74522 -1.02283,-1.47281 -1.8026,-2.16943 z m 16.975,0.0969 -0.87651,0.68029 c 0.68229,0.64803 1.25017,1.37722 1.72129,2.18724 l 0.95782,-0.69809 c -0.42238,-0.74523 -1.02283,-1.47281 -1.8026,-2.16944 z m 85.67813,0.30652 v 1.76601 h -1.46349 c 0.11372,-0.34022 0.22775,-0.69568 0.32522,-1.05208 l -1.54282,-0.34016 c -0.3249,1.26365 -0.8606,2.46203 -1.62413,3.56366 l 1.38021,0.8741 c 0.29242,-0.46981 0.58487,-0.97072 0.84479,-1.48914 h 2.08022 v 1.58802 h -4.46783 v 1.53858 h 10.07197 v -1.53858 h -3.99587 v -1.58802 h 3.15109 v -1.55638 h -3.15109 v -1.76601 z m -22.67827,0.0336 c -1.3646,1.44185 -2.84333,2.6886 -4.46785,3.74164 l 0.92609,1.29533 c 0.19495,-0.1296 0.38969,-0.27542 0.60088,-0.42123 v 2.30193 c -0.0163,2.78649 -0.53684,5.07074 -1.57654,6.83661 l 1.21958,1.08571 c 0.76353,-1.31225 1.29923,-2.80311 1.62413,-4.45555 v 4.58408 h 1.54282 v -0.59921 h 2.84372 v 0.59921 h 1.55868 v -4.66518 h -5.92936 c 0.0325,-0.2268 0.0805,-0.4709 0.11304,-0.71391 h 5.71914 v -5.49182 l 0.87651,-0.92356 c -1.23462,-1.08544 -2.53333,-2.13723 -3.93042,-3.17405 z m 15.12282,0 -1.15216,1.08571 c 1.16965,0.97203 2.07926,1.87876 2.71283,2.72119 l 1.18587,-1.1668 c -0.74728,-0.87482 -1.67436,-1.76527 -2.74654,-2.6401 z m -6.72457,0.0158 v 12.63693 c 0,0.38881 -0.19587,0.58339 -0.55327,0.58339 -0.69854,0 -1.42936,-0.0341 -2.20912,-0.0989 l 0.37479,1.63747 h 2.41934 c 1.10468,0 1.65784,-0.56709 1.65784,-1.68493 v -13.07394 z m -59.76548,0.32432 v 1.89455 h -4.68002 v 1.65329 h 8.52914 c -1.13716,1.39324 -2.55028,2.65665 -4.23978,3.80689 -1.52706,1.03683 -3.2986,1.99348 -5.29675,2.83591 l 0.82891,1.48912 c 1.78698,-0.74521 3.39643,-1.58653 4.8585,-2.49376 v 4.63354 h 1.81846 v -5.91503 c 1.94943,-1.52285 3.50839,-3.23962 4.67805,-5.16749 l -1.05499,-0.84247 h -3.62306 v -1.89455 z m -30.13657,0.24325 -0.89239,0.6803 c 0.69855,0.66422 1.2823,1.39341 1.73717,2.18724 l 0.94394,-0.66448 c -0.45487,-0.81004 -1.05768,-1.55503 -1.78872,-2.20306 z m 16.87981,0.16216 -0.89437,0.68031 c 0.69855,0.66422 1.28428,1.39341 1.73915,2.18723 l 0.94195,-0.66449 c -0.45487,-0.81001 -1.0557,-1.55502 -1.78673,-2.20305 z m -26.51154,0.29071 c -0.0487,2.5921 -0.0654,5.70266 -0.0654,9.36399 0,1.34465 0.38947,2.23631 1.20174,2.67373 0.74727,0.3888 2.2411,0.5992 4.51543,0.5992 0.48736,0 2.24218,-0.0971 5.23131,-0.25905 l 0.0158,-1.73437 c -1.80322,0.2268 -3.60459,0.34014 -5.4078,0.34014 -1.59204,0 -2.64948,-0.14544 -3.15308,-0.43704 -0.40613,-0.2268 -0.60085,-0.68094 -0.60085,-1.32895 v -2.16944 c 3.54144,-0.97204 6.49766,-2.1078 8.90196,-3.38764 l -0.98955,-1.39225 c -2.3718,1.26365 -5.00491,2.28448 -7.89656,3.0297 l 0.0337,-5.29802 z m 18.19458,0.0159 -0.76348,1.58801 c 2.0469,0.53463 3.72027,1.198 4.9874,1.97564 l 0.98955,-1.40806 c -1.44582,-0.90722 -3.18282,-1.62097 -5.21347,-2.15559 z m 78.56094,0.0494 v 10.33499 h 1.62412 v -10.33499 z m -4.95368,0.48648 c 0.77975,0.53462 1.75337,1.32763 2.92303,2.39687 h -1.88391 c -0.16246,-0.46983 -0.32539,-0.89108 -0.48784,-1.26369 l -1.65784,0.25907 c 0.19495,0.3078 0.3591,0.64821 0.52154,1.00462 h -2.14566 c 1.0072,-0.77763 1.91842,-1.58685 2.73068,-2.39687 z m -15.07721,0.30654 c -2.20935,0 -3.99562,0.69632 -5.36022,2.12197 -1.26713,1.29605 -1.89977,2.82022 -1.89977,4.58608 0,1.16645 0.2913,2.16985 0.89237,2.99607 0.63357,0.87483 1.47842,1.31314 2.53436,1.31314 1.16965,0 2.11107,-0.69784 2.82586,-2.05868 0.53609,-1.03684 0.94303,-2.47817 1.23545,-4.32504 l 0.35695,-3.01388 c 1.02345,0.0972 1.93305,0.45463 2.71282,1.05406 1.02345,0.77763 1.54481,1.81474 1.54481,3.11079 0,1.36085 -0.42281,2.41339 -1.25131,3.14242 -0.84475,0.71282 -2.20982,1.26325 -4.12675,1.61966 l 0.55327,1.58801 c 2.17685,-0.46981 3.78388,-1.1348 4.79107,-1.99342 1.16965,-1.03683 1.77087,-2.4774 1.77087,-4.35667 0,-1.66866 -0.63302,-3.04541 -1.88389,-4.14705 -1.26714,-1.10165 -2.84395,-1.63746 -4.69589,-1.63746 z m -23.73327,0.0494 v 1.66911 h 7.78152 c -1.88445,4.01774 -5.05325,7.06288 -9.52067,9.13656 l 1.10456,1.45749 c 2.6967,-1.32844 4.90737,-2.90015 6.62937,-4.71461 0.94222,0.648 1.8018,1.2809 2.59781,1.89652 1.23465,0.95584 2.25912,1.87799 3.08763,2.75283 l 1.41392,-1.16482 c -0.79602,-0.87483 -1.88526,-1.83229 -3.2661,-2.88532 -0.81226,-0.61563 -1.70601,-1.26356 -2.69696,-1.944 1.16965,-1.55524 2.21038,-3.38574 3.08762,-5.49181 l -1.0887,-0.71195 z m 22.64654,1.61968 c -0.12996,1.29604 -0.32583,2.54317 -0.55327,3.72581 -0.55234,2.68929 -1.28354,4.03432 -2.19326,4.03432 -0.47111,0 -0.86135,-0.24212 -1.17001,-0.71195 -0.3574,-0.51842 -0.51956,-1.18302 -0.51956,-2.00924 0,-1.45805 0.55317,-2.69011 1.65784,-3.67835 0.81225,-0.74524 1.73856,-1.1986 2.77826,-1.36059 z m -47.77788,0.48649 c -0.89349,2.02506 -2.25893,3.79136 -4.11088,5.29801 -1.96567,1.57145 -4.20617,2.6561 -6.74044,3.23933 l 0.82696,1.65328 c 2.76167,-0.64802 5.20004,-1.84686 7.29567,-3.62893 1.91693,-1.65244 3.39481,-3.61453 4.41826,-5.91501 z m -11.09523,0.56559 -0.74761,1.58801 c 1.91694,0.50223 3.57369,1.16721 5.00327,1.99344 l 0.94195,-1.52276 c -1.73824,-0.97204 -3.47561,-1.65368 -5.19761,-2.05869 z m 73.02225,0.71392 h 3.9463 v 0.85828 h -3.9463 z m 15.00979,0.0653 v 1.55441 h 2.14369 v 4.43973 c -0.64981,0.35642 -1.36316,1.1819 -2.17542,2.47795 l 1.25132,1.16678 c 0.81225,-1.45805 1.36268,-2.18723 1.68758,-2.18723 0.17869,0 0.37542,0.13 0.60285,0.40542 0.48735,0.55082 1.05562,0.92293 1.70542,1.11734 0.68231,0.16201 1.54188,0.25869 2.59783,0.2749 1.03969,0.0161 2.01566,0.0336 2.90914,0.0336 h 3.72022 l 0.4224,-1.6691 c -0.45487,0.0324 -1.08912,0.0645 -1.91762,0.0969 -0.84476,0 -1.65665,0.0158 -2.46891,0.0158 -1.26713,0 -2.35561,-0.0154 -3.29783,-0.0316 -0.95848,-0.0324 -1.67419,-0.16239 -2.16155,-0.4054 -0.37363,-0.21061 -0.74678,-0.53398 -1.12041,-0.95519 l -0.17849,-0.17799 v -6.15629 z m 5.83218,1.92818 v 4.8926 h 7.63479 v -4.8926 z m -20.85783,0.0969 h 3.96216 v 0.84246 h -3.99587 c 0.0162,-0.27541 0.0337,-0.55085 0.0337,-0.84246 z m -46.72289,0.35597 -0.98955,1.39223 c 0.6823,0.32402 1.52714,0.79441 2.53434,1.41004 0.74729,0.45361 1.57467,0.97239 2.50065,1.58803 l 1.10456,-1.39422 c -0.92598,-0.59943 -1.77083,-1.13244 -2.53434,-1.58605 -1.00721,-0.58321 -1.86838,-1.05362 -2.61566,-1.41003 z m 69.20484,1.10152 h 4.38654 v 1.76601 h -4.38654 z m -21.24849,2.75483 h 2.84372 v 1.40805 h -2.84372 z" />
  <path
     id="path625"
     style="font-weight:600;font-size:16px;font-family:PingFangSC-Semibold, 'PingFang SC';letter-spacing:0.1em;fill:#fdfdfd;stroke-width:1"
     d="m 317.16679,315.22319 -0.87653,0.68029 c 0.68231,0.64803 1.2502,1.37721 1.72131,2.18723 l 0.9598,-0.69612 c -0.42238,-0.74522 -1.02481,-1.47478 -1.80458,-2.1714 z M 167.8423,315.5475 v 3.62892 h -2.7624 v -3.46674 h -1.7213 v 3.46674 h -1.91761 v 1.63748 h 1.91761 v 9.10293 h 12.3287 v -1.71656 h -10.6074 v -7.38637 h 2.7624 v 5.10223 h 6.12369 v -5.10223 h 2.27458 v -1.63748 h -2.27458 v -3.62892 h -1.67369 v 3.62892 h -2.77827 v -3.62892 z m 13.14175,0.47069 v 6.80298 h 2.69696 c -1.0397,0.93963 -2.56769,1.71795 -4.61458,2.33357 l 0.91023,1.47531 c 1.39708,-0.56703 2.59997,-1.21696 3.60718,-1.94599 -0.0325,0.97204 -0.21091,1.76742 -0.51957,2.38303 -0.43861,0.84243 -1.36493,1.55459 -2.77826,2.1378 l 1.12043,1.36059 c 1.75449,-0.77763 2.85883,-1.74855 3.3137,-2.915 0.38988,-0.92342 0.58499,-2.04178 0.58499,-3.35402 h -1.21759 c 0.55234,-0.45361 1.03914,-0.95687 1.46151,-1.47529 h 2.34002 c 0.35739,0.51842 0.82787,1.0051 1.38021,1.49112 h -0.87652 v 6.23737 h 1.70544 v -5.58872 c 0.94222,0.68042 2.11095,1.27884 3.50803,1.81347 l 0.73175,-1.48915 c -2.03065,-0.61563 -3.57489,-1.44347 -4.61458,-2.46409 h 2.79413 v -6.80298 z m 63.51942,0.25906 c -1.49456,0.50222 -3.03803,0.90605 -4.64631,1.23007 -1.68951,0.32402 -3.46144,0.53488 -5.28089,0.66448 l 0.44023,1.63747 c 1.59204,-0.0972 3.13468,-0.27513 4.59674,-0.51814 v 2.25052 h -6.01065 v 1.66909 h 6.01065 c -0.065,1.13405 -0.48778,2.15411 -1.25131,3.06134 -0.6823,0.79384 -1.62372,1.50796 -2.82586,2.13979 l 1.20173,1.40806 c 1.46207,-0.74523 2.5835,-1.63492 3.36327,-2.67175 0.8285,-1.13405 1.26566,-2.44698 1.33064,-3.93744 h 5.83219 v -1.66909 h -5.83219 v -2.59068 c 1.39709,-0.30781 2.7462,-0.68191 4.02958,-1.11932 z m 71.03919,0.0316 -0.89237,0.68029 c 0.69854,0.66422 1.28229,1.39341 1.73715,2.18723 l 0.94195,-0.66448 c -0.45486,-0.81001 -1.05569,-1.55502 -1.78673,-2.20304 z M 272.07,316.55209 v 12.37787 l 0.87849,0.74555 c 2.07939,-0.56701 3.99518,-1.40991 5.71717,-2.51155 1.72199,-1.13405 3.28172,-2.5591 4.64632,-4.24396 l -1.4298,-1.05406 c -0.90973,1.18264 -2.09477,2.31642 -3.58934,3.38567 -1.49456,1.05303 -2.95733,1.83174 -4.37066,2.31776 v -11.01728 z m 35.1557,0.0653 -0.76347,1.58802 c 2.0469,0.53461 3.72027,1.19801 4.9874,1.97563 l 0.99152,-1.41003 c -1.44582,-0.90723 -3.18479,-1.619 -5.21545,-2.15362 z m -18.98979,0.3085 -0.89436,1.52277 c 1.46206,0.76143 3.10249,1.78111 4.92195,3.07716 l 1.13829,-1.37641 c -1.85196,-1.34465 -3.57385,-2.41349 -5.16588,-3.22352 z m -65.43704,0.53396 c -2.20935,0 -3.99561,0.69632 -5.36021,2.12197 -1.26714,1.29605 -1.90176,2.81825 -1.90176,4.58411 0,1.16643 0.29329,2.17182 0.89436,2.99806 0.63356,0.87482 1.47841,1.31114 2.53435,1.31114 1.16966,0 2.11108,-0.69585 2.82586,-2.05671 0.53609,-1.03683 0.94304,-2.47817 1.23546,-4.32503 l 0.35694,-3.01387 c 1.02345,0.0972 1.93305,0.45464 2.71282,1.05405 1.02346,0.77764 1.54283,1.81278 1.54283,3.1088 0,1.36085 -0.42082,2.41539 -1.24933,3.14441 -0.84475,0.71282 -2.20981,1.26326 -4.12675,1.61966 l 0.55129,1.58803 c 2.17687,-0.46983 3.78586,-1.13481 4.79307,-1.99344 1.16964,-1.03683 1.77087,-2.47939 1.77087,-4.35866 0,-1.66865 -0.63302,-3.04539 -1.88391,-4.14704 -1.26713,-1.10164 -2.84393,-1.63548 -4.69589,-1.63548 z m -40.17483,0.0475 h 3.26609 v 1.20041 h -3.26609 z m 4.92394,0 h 3.32955 v 1.20041 h -3.32955 z m 15.28543,1.13515 c -0.60108,0 -1.16933,0.30755 -1.70542,0.93936 -1.78699,2.07369 -3.24938,3.59586 -4.38654,4.58411 l 1.41391,1.32895 c 1.25089,-1.23124 2.68071,-2.80173 4.30524,-4.68099 0.14621,-0.19442 0.27657,-0.27688 0.40653,-0.27688 0.0487,0 0.12821,0.0337 0.24193,0.11471 0.0975,0.081 0.24369,0.2094 0.42238,0.38761 2.53426,2.68928 5.0859,5.12018 7.65264,7.30727 l 1.25132,-1.41005 c -2.32307,-1.96026 -4.90689,-4.38957 -7.74982,-7.28947 -0.38988,-0.3888 -0.74716,-0.66462 -1.10455,-0.82664 -0.25993,-0.12959 -0.50395,-0.17798 -0.74762,-0.17798 z m 18.87676,0.48648 c -0.12997,1.29606 -0.32386,2.54318 -0.5513,3.72582 -0.55234,2.6893 -1.28353,4.03433 -2.19326,4.03433 -0.4711,0 -0.86134,-0.24409 -1.17,-0.71391 -0.3574,-0.51841 -0.51957,-1.18303 -0.51957,-2.00925 0,-1.45804 0.55119,-2.68814 1.65586,-3.67639 0.81225,-0.74521 1.73857,-1.19858 2.77827,-1.3606 z m 77.42464,0.0633 c -0.99095,2.23568 -2.41918,4.13159 -4.28738,5.71924 -1.94941,1.62007 -4.15971,2.70556 -6.64523,3.28878 l 0.82892,1.60384 c 2.85916,-0.68044 5.27929,-1.89546 7.2937,-3.62892 1.86819,-1.65245 3.36239,-3.75839 4.49955,-6.33428 z m -42.2848,0.14634 -1.75501,0.32433 0.55129,2.81809 -2.89131,0.48649 0.32523,1.60384 2.8913,-0.5023 1.0887,5.49182 1.73915,-0.30654 -1.08871,-5.49182 3.395,-0.58339 c -0.53609,0.68041 -1.23509,1.39333 -2.09609,2.10615 l 1.23546,1.18261 c 1.26712,-1.00444 2.38779,-2.42995 3.39499,-4.30921 l -1.10456,-0.82663 -5.13416,0.85827 z m 60.04112,0.27489 c -0.89348,2.02508 -2.25693,3.79136 -4.10889,5.29801 -1.96567,1.57146 -4.20816,2.65809 -6.74241,3.2413 l 0.82893,1.65132 c 2.76168,-0.64804 5.19805,-1.84685 7.29368,-3.62892 1.91694,-1.65245 3.39483,-3.61257 4.41826,-5.91305 z m -134.26709,0.4865 h 3.26609 v 1.26368 h -3.26609 z m 4.92394,0 h 3.32955 v 1.26368 h -3.32955 z m 118.24794,0.0811 -0.74762,1.58803 c 1.91694,0.50221 3.57369,1.1672 5.00326,1.99342 l 0.94195,-1.52473 c -1.73823,-0.97204 -3.4756,-1.65169 -5.19759,-2.05672 z m -136.28189,0.63285 h 2.77827 v 3.44894 h -2.77827 z" />
  <path
     id="path644"
     style="font-weight:600;font-size:16px;font-family:PingFangSC-Semibold, 'PingFang SC';letter-spacing:0.1em;fill:#fdfdfd;stroke-width:1"
     d="m 309.33172,345.42723 -0.8785,0.68029 c 0.68229,0.64802 1.25216,1.37721 1.72328,2.18723 l 0.95781,-0.69612 c -0.42237,-0.74521 -1.02283,-1.47478 -1.80259,-2.1714 z m -41.34483,0.42123 -1.77088,0.29071 c 0.25992,0.324 0.48883,0.69688 0.70001,1.08569 h -5.88175 v 5.05478 c -0.0325,3.17531 -0.43784,5.65376 -1.2176,7.43582 l 1.2989,1.15096 c 1.00721,-2.15467 1.54328,-5.02264 1.60826,-8.58678 v -3.4351 h 11.82698 v -1.61968 h -5.8659 c -0.22742,-0.5022 -0.4706,-0.95518 -0.69802,-1.3764 z m -53.75484,0.0652 -1.83632,0.29071 c 0.12996,0.2592 0.27657,0.53464 0.40652,0.84245 h -5.61998 v 1.55441 h 2.59781 c 0.25992,0.55082 0.52018,1.15039 0.74761,1.766 h -3.23238 v 4.1965 c -0.0325,2.25188 -0.37346,4.01854 -1.02328,5.28219 l 1.33263,1.18261 c 0.71478,-1.31225 1.16978,-2.98223 1.34848,-5.00731 l 1.00541,0.8919 c 0.12996,-0.162 0.27619,-0.32411 0.4224,-0.50231 v 1.37641 h 3.68849 v 1.39423 h -5.05284 v 1.48913 h 11.48589 v -1.48913 h -4.77522 v -1.39423 h 3.53976 v -1.47332 h -3.53976 v -1.3764 h 4.04346 v -1.49114 h -4.04346 v -1.19841 h -1.65783 v 1.19841 h -2.12782 c 0.0975,-0.2592 0.17855,-0.50216 0.25977,-0.76137 l -1.41391,-0.56757 c -0.3899,1.39325 -0.99035,2.55951 -1.80261,3.46674 l 0.0317,-1.02043 v -2.65594 h 11.56719 v -1.54056 h -3.49218 c 0.25993,-0.56702 0.46977,-1.15038 0.64847,-1.766 h 2.59979 v -1.55436 h -5.7013 c -0.12996,-0.42121 -0.27656,-0.79296 -0.40652,-1.13316 z m -34.29308,0.0316 v 4.43974 l -1.83631,0.56559 v -3.35205 h -1.65784 v 3.85436 l -1.03913,0.32435 v 1.65328 l 1.03913,-0.30852 v 5.62234 c 0,1.26364 0.63463,1.89456 1.90176,1.89456 h 5.15 c 0.61732,0 1.07156,-0.16089 1.38022,-0.4687 0.3249,-0.30781 0.5522,-1.33024 0.68217,-3.0475 l -1.57653,-0.4845 c -0.0487,1.16643 -0.14569,1.86155 -0.27565,2.08835 -0.11372,0.22682 -0.29175,0.34014 -0.53543,0.34014 h -4.30521 c -0.51985,0 -0.76349,-0.22508 -0.76349,-0.66249 v -5.78451 l 1.83631,-0.54977 v 5.37712 h 1.62414 v -5.86362 l 1.81846,-0.53593 c -0.0163,1.76586 -0.0488,2.7879 -0.0813,3.06331 -0.065,0.32401 -0.21006,0.48453 -0.46999,0.48453 -0.25992,0 -0.56906,-0.0156 -0.91022,-0.0316 l 0.48784,1.65328 h 0.0654 c 1.31586,0 2.06178,-0.3725 2.25672,-1.10154 0.1787,-0.74522 0.27763,-2.8361 0.27763,-6.28682 l -3.44457,1.05407 v -3.93743 z m 103.57924,0 v 12.7813 h -5.63784 v 1.65328 h 14.60523 v -1.65328 h -7.21437 v -6.33429 h 6.01265 v -1.63548 h -6.01265 v -4.81153 z m -54.29224,0.0159 v 2.36522 h -1.65586 l 0.9261,-0.40542 c -0.29241,-0.68042 -0.65047,-1.31094 -1.07285,-1.91037 l -1.28304,0.53397 c 0.32491,0.50221 0.64955,1.10139 0.94196,1.78182 h -2.43718 v 1.44167 h 3.23239 l 0.68217,1.32896 h -3.58934 v 1.42585 h 5.75088 v 0.79303 h -5.40979 v 1.39421 h 5.40979 v 0.7772 h -6.23871 v 1.42586 h 4.64631 c -0.97472,0.82623 -2.63261,1.5879 -4.95567,2.26833 l 0.89436,1.45749 c 2.64797,-0.98824 4.53278,-2.13831 5.65371,-3.46675 v 3.70999 h 1.65586 v -3.75944 c 1.20214,1.42565 3.13623,2.60896 5.80044,3.5162 l 0.71391,-1.49113 c -2.14437,-0.55082 -3.7677,-1.29506 -4.87238,-2.23469 h 4.59674 v -1.42586 h -6.23871 v -0.7772 h 5.40979 v -1.39421 h -5.40979 v -0.79303 h 5.71914 v -1.42573 h -3.72022 l 0.55327,-1.32896 h 3.52391 v -1.44167 h -2.69696 c 0.42237,-0.50223 0.81336,-1.08436 1.13826,-1.7324 l -1.25131,-0.5992 c -0.34114,0.68043 -0.74808,1.27801 -1.23544,1.76402 l 0.79719,0.56758 h -1.5924 v -2.36522 h -1.55869 v 2.36522 h -1.26717 v -2.36522 z m -30.86634,0.0158 c 0,0.68044 0.002,1.34541 0.0178,1.99344 h -5.55654 v 1.58802 h 5.58826 c 0.065,2.39768 0.19534,4.38906 0.40653,5.96051 0.0487,0.45362 0.11273,0.87611 0.2102,1.29733 -0.81226,1.19883 -1.80371,2.10481 -2.94088,2.75282 l 1.04112,1.36257 c 0.89348,-0.55082 1.70614,-1.26457 2.43717,-2.15559 0.0975,0.2592 0.19329,0.51799 0.32324,0.77719 0.45487,0.84243 0.95876,1.27953 1.5111,1.27953 0.77977,0 1.47954,-0.98836 2.06436,-2.94863 l -1.26717,-1.03626 c -0.29242,1.47426 -0.55351,2.2201 -0.79719,2.2525 -0.27617,-0.081 -0.53605,-0.71229 -0.76348,-1.87873 0.92597,-1.60386 1.65679,-3.61425 2.20913,-6.01194 l -1.46152,-0.63085 c -0.27617,1.44184 -0.64931,2.73811 -1.12043,3.87216 -0.11372,-1.36085 -0.17969,-2.98095 -0.21218,-4.89261 h 3.21652 v -1.58802 h -0.6663 c -0.16246,-0.63183 -0.30793,-1.19854 -0.45413,-1.70074 l -1.49523,0.24325 c 0.19494,0.45361 0.37496,0.93908 0.53741,1.45749 h -1.15414 c -0.0163,-0.64803 -0.0159,-1.313 -0.0159,-1.99344 z m -26.17046,0.0336 v 4.05015 h -1.6737 v 1.65131 h 1.6737 v 5.21694 c -0.61732,0.17821 -1.25034,0.32326 -1.88389,0.45287 l 0.43825,1.73436 c 1.72198,-0.48602 3.32984,-1.08482 4.84063,-1.79765 v -1.68492 c -0.56858,0.2592 -1.13646,0.51876 -1.72129,0.74555 v -4.66715 h 1.5111 v -1.65131 h -1.5111 v -4.05015 z m 17.7246,0 v 4.06597 h -1.41391 v 1.61966 h 1.41391 v 4.86097 c -0.51984,0.162 -1.04044,0.29201 -1.57653,0.40541 l 0.42239,1.71656 c 1.46207,-0.46981 2.843,-1.03652 4.14261,-1.70075 v -1.70072 c -0.42238,0.22679 -0.86188,0.43607 -1.31674,0.64667 v -4.22814 h 1.34847 v -1.61966 h -1.34847 v -4.06597 z m 118.16664,0.64669 -0.89437,0.68029 c 0.69855,0.66422 1.28428,1.39341 1.73915,2.18724 l 0.94195,-0.6625 c -0.45487,-0.81003 -1.0557,-1.55702 -1.78673,-2.20503 z m -1.08872,0.0336 -1.80259,0.1938 c 0.12996,1.23126 0.24361,2.31675 0.34109,3.28878 -0.55234,0.0161 -1.12098,0.0316 -1.68957,0.0316 -1.02345,0 -2.27365,-0.0325 -3.75196,-0.0811 l 0.0158,1.6691 c 1.31586,0.0324 2.56643,0.0653 3.73609,0.0653 0.60108,0 1.20153,-0.0155 1.8026,-0.0316 0.0325,0.58322 0.0495,1.1166 0.0495,1.57022 0,1.42565 -0.19549,2.52857 -0.56913,3.32239 -0.48736,1.00444 -1.3644,1.81328 -2.63152,2.41269 l 1.0887,1.44168 c 1.60828,-0.77763 2.713,-1.82981 3.29782,-3.15824 0.40613,-0.97204 0.61674,-2.31707 0.61674,-4.03433 0,-0.43742 -0.033,-0.98906 -0.0655,-1.65328 0.97472,-0.0648 1.93321,-0.14567 2.87544,-0.25906 l -0.0158,-1.66714 c -0.97471,0.1296 -1.96541,0.22591 -2.97261,0.29071 -0.0975,-0.97203 -0.19526,-2.10544 -0.32523,-3.40149 z m -9.82804,0.16217 c -0.51985,2.31667 -0.76348,4.82759 -0.76348,7.51689 0,2.10607 0.35767,3.96866 1.08871,5.58873 l 1.6737,-0.5834 c -0.64981,-1.49045 -0.9598,-3.15847 -0.9598,-5.00533 0,-2.5921 0.24439,-5.00594 0.73175,-7.25783 z m -47.40309,1.03626 c -2.20934,0 -3.9976,0.69633 -5.3622,2.12197 -1.26711,1.29605 -1.89976,2.81826 -1.89976,4.58412 0,1.16643 0.29328,2.17182 0.89436,2.99805 0.63356,0.87482 1.4784,1.31314 2.53434,1.31314 1.16966,0 2.11108,-0.69785 2.82587,-2.0587 0.53609,-1.03683 0.94303,-2.47818 1.23544,-4.32504 l 0.35697,-3.01387 c 1.02344,0.0972 1.93304,0.45464 2.71281,1.05406 1.02346,0.77763 1.54282,1.81473 1.54282,3.11079 0,1.36085 -0.4228,2.4134 -1.25131,3.14243 -0.84475,0.71281 -2.2098,1.26325 -4.12674,1.61965 l 0.55327,1.58803 c 2.17686,-0.46983 3.78585,-1.13481 4.79306,-1.99344 1.16965,-1.03683 1.77086,-2.47741 1.77086,-4.35667 0,-1.66866 -0.635,-3.04739 -1.88588,-4.14903 -1.26713,-1.10164 -2.84195,-1.63549 -4.69391,-1.63549 z m -38.11245,0.71194 h 4.28936 c -0.1462,0.61563 -0.3568,1.19899 -0.61672,1.76601 h -3.05392 c -0.19494,-0.61562 -0.40753,-1.21519 -0.61872,-1.76601 z m 61.17941,0.64866 c -2.79417,0.51841 -5.75076,0.85844 -8.88608,1.02044 v 8.23082 c 0,0.30781 -0.2261,0.51784 -0.64847,0.61504 l 0.38868,1.52276 c 1.3646,-0.29161 2.56826,-0.59832 3.57546,-0.88993 l -0.30936,-1.55638 c -0.43862,0.1458 -0.89362,0.2758 -1.34849,0.40542 v -3.58146 h 3.41088 c 0.16245,0.79382 0.35832,1.4592 0.55327,1.97762 0.48736,1.23123 1.02268,2.18588 1.64,2.83392 0.58481,0.63181 1.17093,0.95716 1.72327,0.95716 0.6823,0 1.2669,-1.00502 1.78674,-3.01389 l -1.3822,-0.92354 c -0.19493,1.39325 -0.37221,2.10737 -0.56715,2.13977 -0.27617,0 -0.60202,-0.27658 -0.97567,-0.795 -0.38988,-0.55082 -0.71497,-1.36161 -1.00739,-2.41466 -0.065,-0.22681 -0.12974,-0.48597 -0.17848,-0.76138 h 3.51002 v -1.58604 h -3.78566 c -0.0975,-0.64803 -0.19481,-1.39426 -0.25979,-2.23669 1.25088,-0.162 2.4534,-0.33915 3.62305,-0.54977 z m -24.15565,0.30851 c -0.12997,1.29604 -0.32584,2.54317 -0.55328,3.72582 -0.55233,2.68928 -1.28156,4.03431 -2.19129,4.03431 -0.4711,0 -0.86134,-0.24409 -1.16999,-0.71391 -0.35741,-0.51842 -0.51957,-1.18302 -0.51957,-2.00924 0,-1.45805 0.55118,-2.68814 1.65586,-3.67639 0.81226,-0.74522 1.73857,-1.19859 2.77827,-1.36059 z m -19.13654,0.20962 h 3.73609 l -0.53543,1.32895 h -2.53436 z m -36.11353,1.03818 v 4.81152 h 4.35282 v -4.81152 z m 74.9716,0.58141 c 0.0975,0.71283 0.19564,1.39486 0.30935,2.04288 h -3.10349 v -1.81545 c 0.94223,-0.0648 1.88441,-0.14641 2.79414,-0.22743 z m -73.52594,0.79502 h 1.44565 v 2.0567 h -1.44565 z m 16.43957,2.7548 h 2.76241 v 1.37641 h -3.60719 c 0.29242,-0.40501 0.58486,-0.85799 0.84478,-1.37641 z m -13.53241,1.32698 c -1.78697,0.66422 -3.62251,1.13424 -5.50696,1.42586 l 0.42239,1.61965 c 1.80323,-0.42121 3.49254,-0.92334 5.08457,-1.52276 z m 70.63465,0.93935 -1.23346,0.77918 c 0.6823,1.02065 1.23424,1.94403 1.62412,2.78645 l 1.33262,-0.92353 c -0.38989,-0.74523 -0.976,-1.63766 -1.72328,-2.6421 z" />
  <path
     id="楕円形_3"
     style="fill:#fdfdfd;stroke-width:1"
     d="M 305.74649,65.184051 A 65.363715,65.184052 0 0 1 240.38277,130.3681 65.363715,65.184052 0 0 1 175.01906,65.184051 65.363715,65.184052 0 0 1 240.38277,0 65.363715,65.184052 0 0 1 305.74649,65.184051 Z" />
  <path
     id="path662"
     style="font-weight:600;font-size:22px;font-family:PingFangSC-Semibold, 'PingFang SC';letter-spacing:0.1em;fill:#222222;stroke-width:1"
     d="m 239.73619,54.930143 c -2.59111,2.895851 -5.8298,5.30256 -9.73881,7.218277 l 1.25131,2.270296 c 1.34023,-0.735101 2.61369,-1.513331 3.79756,-2.337535 v 1.692834 h 11.14678 v -1.603841 c 1.1392,0.801929 2.34535,1.558515 3.64091,2.226788 l 1.27313,-2.272273 c -3.6633,-1.737512 -6.88123,-4.142764 -9.67338,-7.194546 z m -24.92707,0.04548 v 7.528761 h -4.44602 v -5.85966 h -2.34398 v 8.086449 h 6.79 v 7.485254 h -5.56249 v -5.814174 h -2.34597 v 9.043612 h 2.34597 v -0.978917 h 13.53638 v 0.978917 h 2.34595 v -9.043612 h -2.34595 v 5.814174 h -5.56248 v -7.485254 h 6.79198 v -8.086449 h -2.34597 v 5.85966 h -4.44601 v -7.528761 z m 25.77582,2.048803 c 1.40724,1.69296 3.01694,3.207479 4.84859,4.566302 h -9.717 c 1.87632,-1.381098 3.48351,-2.917894 4.86841,-4.566302 z m 15.81492,0.978918 c -0.33506,2.183026 -0.48982,4.256293 -0.48982,6.261113 0,2.962678 0.4673,5.301848 1.4278,6.994807 0.9605,1.692958 2.30168,2.539251 4.02165,2.539251 1.07218,0 1.9663,-0.49173 2.6811,-1.449588 0.67011,-0.935584 1.25023,-2.405251 1.71931,-4.410071 l -2.4352,-0.601193 c -0.1787,0.935582 -0.37948,1.715791 -0.60285,2.339512 -0.40207,1.11379 -0.89369,1.692835 -1.42979,1.692835 -0.71478,0 -1.33988,-0.55636 -1.87597,-1.625597 -0.67011,-1.314269 -1.00541,-3.140999 -1.00541,-5.479956 0,-2.027096 0.15727,-4.010659 0.46999,-5.948652 z m 14.74405,0 -1.96719,1.471341 c 2.27839,2.650818 3.55132,6.370361 3.81936,11.159653 l 2.48082,-0.110745 c -0.26804,-5.301635 -1.71954,-9.490744 -4.33299,-12.520249 z m -39.60371,8.04294 v 2.272272 h 5.04689 c -0.7818,1.425651 -1.71892,2.807069 -2.83578,4.121341 -0.2457,0.267308 -0.64925,0.489291 -1.20768,0.622947 l 0.62665,2.02705 c 5.18222,-0.311861 9.49307,-0.735007 12.95534,-1.269626 0.4244,0.579171 0.82597,1.180903 1.2057,1.760073 l 1.94339,-1.358618 c -1.11686,-1.603856 -2.68105,-3.5204 -4.71373,-5.703427 l -1.80855,1.137126 c 0.73712,0.84648 1.43047,1.670084 2.07825,2.472013 -2.85916,0.334136 -5.8091,0.579218 -8.82463,0.757424 1.25089,-1.291995 2.3458,-2.828791 3.28395,-4.566303 h 10.38727 v -2.272272 z" />
  <path
     id="楕円形_6"
     style="fill:#fdfdfd;stroke-width:1"
     d="m 479.99998,366.53821 a 65.363715,65.184052 0 0 1 -65.36371,65.18405 65.363715,65.184052 0 0 1 -65.36371,-65.18405 65.363715,65.184052 0 0 1 65.36371,-65.18406 65.363715,65.184052 0 0 1 65.36371,65.18406 z" />
  <path
     id="path670"
     style="font-weight:600;font-size:22px;font-family:PingFangSC-Semibold, 'PingFang SC';letter-spacing:0.1em;fill:#222222;stroke-width:1"
     d="m 401.2684,356.39505 v 1.64736 h -7.7974 v 2.13976 h 7.7974 v 1.4476 h -6.50048 v 2.13781 h 6.50048 v 1.44762 h -8.57872 v 2.11603 h 6.63532 c -1.58593,1.6484 -3.99877,3.00807 -7.25999,4.09959 l 1.25132,2.02704 c 1.25088,-0.53462 2.41205,-1.09086 3.48424,-1.71459 v 2.11605 c 0,0.51234 -0.31255,0.8896 -0.93799,1.1569 l 0.75951,1.98355 c 2.50175,-0.60145 4.95809,-1.35845 7.39285,-2.29403 l -0.47,-2.13977 c -1.47424,0.57916 -2.96925,1.1143 -4.46584,1.58209 v -3.96512 c 1.09453,-0.89103 2.00941,-1.82703 2.74654,-2.85171 h 0.46999 c 1.89865,4.70019 4.86883,7.88712 8.91186,9.55779 l 1.27313,-2.05078 c -1.87632,-0.69054 -3.48403,-1.67047 -4.8466,-2.96247 1.25088,-0.60143 2.41258,-1.42557 3.46242,-2.45025 l -1.60826,-1.55835 c -1.00517,1.11379 -2.07784,1.98184 -3.1947,2.561 -0.73713,-0.93557 -1.36223,-1.96088 -1.87599,-3.09694 h 7.79542 v -2.11603 h -8.57674 v -1.44762 h 6.4985 v -2.13781 h -6.4985 v -1.4476 h 7.79541 v -2.13976 h -7.79541 v -1.64736 z m 23.89985,0.62295 v 12.83073 h 2.34596 c -0.26805,2.36124 -1.52022,4.0331 -3.75394,5.01323 l 1.20768,1.95983 c 2.90384,-1.44793 4.46752,-3.76535 4.73556,-6.97306 h 1.54084 v 4.52279 c 0,1.42565 0.82587,2.15955 2.47882,2.15955 h 1.00542 c 1.0275,-0.0891 1.6743,-0.35541 1.98702,-0.80093 0.31273,-0.46779 0.46999,-1.78207 0.46999,-3.96511 l -2.05446,-0.75743 c 0,1.06924 -0.0228,1.89431 -0.0674,2.49575 -0.0447,0.57918 -0.17814,0.89086 -0.44619,0.9354 h -0.80512 c -0.26805,-0.0668 -0.37877,-0.24582 -0.37877,-0.55768 v -4.03234 h 2.38959 V 357.018 Z m -8.30903,0.46869 v 2.20503 h 2.61367 v 4.87876 h -2.30232 v 2.2268 h 2.30232 v 5.39097 c -0.89348,0.2673 -1.81036,0.49022 -2.74852,0.66843 l 0.53742,2.22678 c 2.54644,-0.71283 4.93504,-1.5818 7.16876,-2.60649 v -2.24854 c -0.84881,0.40096 -1.71872,0.77874 -2.58988,1.13514 v -4.56629 h 2.1655 v -2.2268 h -2.1655 v -4.87876 h 2.56806 v -2.20503 z m 10.54196,1.49111 h 6.18913 v 1.67108 h -6.18913 z m 0,3.4984 h 6.18913 v 1.78184 h -6.18913 z m 0,3.60913 h 6.18913 v 1.82535 h -6.18913 z" />
  <path
     id="楕円形_5"
     style="fill:#fdfdfd;stroke-width:1"
     d="M 130.72743,366.53821 A 65.363715,65.184052 0 0 1 65.363715,431.72226 65.363715,65.184052 0 0 1 0,366.53821 65.363715,65.184052 0 0 1 65.363715,301.35415 65.363715,65.184052 0 0 1 130.72743,366.53821 Z" />
  <path
     id="path676"
     style="font-weight:600;font-size:22px;font-family:PingFangSC-Semibold, 'PingFang SC';letter-spacing:0.1em;fill:#222222;stroke-width:1"
     d="m 86.372215,355.65938 -1.205701,0.93542 c 0.938161,0.89102 1.719996,1.89415 2.367775,3.00794 l 1.316752,-0.95916 c -0.580766,-1.02467 -1.406642,-2.02634 -2.478826,-2.9842 z m -33.684272,0.44495 -2.121875,1.02442 c 0.737127,1.02467 1.428487,2.20588 2.076265,3.52013 h -4.422225 l 1.340549,-0.66842 c -0.71479,-1.24745 -1.429835,-2.38275 -2.1893,-3.40742 l -2.121875,1.02439 c 0.737128,0.89104 1.429946,1.91538 2.100062,3.05145 h -3.93241 v 5.5472 h 2.300351 v -3.31843 h 14.898736 v 3.31843 h 2.324146 v -5.5472 h -4.043461 c 0.737129,-0.95786 1.452697,-2.13904 2.167486,-3.52013 l -2.413384,-0.88993 c -0.647778,1.55929 -1.406864,3.02897 -2.300351,4.41006 h -3.416814 l 1.854163,-0.9354 c -0.670116,-1.31427 -1.385273,-2.51763 -2.100063,-3.60915 z m 31.360125,1.02442 -1.227515,0.93737 c 0.960499,0.91331 1.764148,1.91447 2.389589,3.00598 l 1.294938,-0.91366 c -0.625441,-1.11379 -1.45184,-2.13867 -2.457012,-3.02969 z m -1.673704,1.15886 -2.302333,0.82469 c 1.206207,3.07405 1.810534,5.85799 1.810534,8.37516 0,1.89345 -0.424312,3.36364 -1.273125,4.38831 -0.893487,1.09152 -2.234673,1.64933 -4.021647,1.64933 -1.518928,0 -2.702326,-0.40098 -3.573476,-1.18061 -0.893487,-0.80193 -1.318736,-1.87208 -1.318736,-3.25319 0,-1.24744 0.267984,-2.47149 0.848751,-3.6744 0.647778,-1.42565 1.831699,-3.16361 3.551662,-5.21298 l -1.540838,-1.5366 c -2.099694,1.02468 -4.602052,1.55825 -7.505886,1.64735 v 2.33952 c 0.960498,0 1.900123,-0.0889 2.815947,-0.26699 0.893487,-0.20048 1.786151,-0.46825 2.657301,-0.82466 -1.049847,1.15834 -1.875722,2.47316 -2.478826,3.94337 -0.536092,1.29198 -0.805123,2.49388 -0.805123,3.58539 0,2.04938 0.64878,3.69909 1.989011,4.92426 1.34023,1.20289 3.126495,1.80358 5.360213,1.80358 2.613449,0 4.579206,-0.80291 5.919436,-2.40676 1.161534,-1.44793 1.764924,-3.40682 1.764924,-5.87944 0,-0.46779 -0.06732,-0.95753 -0.156661,-1.44761 -0.08935,-0.49007 -0.223863,-0.98075 -0.402562,-1.4931 0.982837,1.42565 2.167281,2.56241 3.529849,3.43118 l 1.407973,-2.00531 c -1.451917,-0.93559 -2.724854,-2.07233 -3.819375,-3.43115 -1.116859,-1.38109 -1.92092,-2.80685 -2.457013,-4.29934 z m -35.248907,5.79244 v 2.04879 h 8.711588 c -0.893487,0.44551 -2.07741,0.95837 -3.551662,1.58209 v 1.64736 h -8.733401 v 2.18327 h 8.733401 v 2.474 c 0,0.53462 -0.224056,0.82268 -0.648462,0.82268 -0.960498,0 -1.853162,-0.0208 -2.657301,-0.0653 l 0.581037,2.11605 h 2.859574 c 1.474253,0 2.211113,-0.71318 2.211113,-2.09429 v -3.25317 h 8.2416 v -2.18327 h -8.2416 v -0.62296 c 1.697624,-0.84647 3.237609,-1.71546 4.622514,-2.60649 v -2.04879 z" />
</svg>
